<svg width="1432" height="614" viewBox="0 0 1432 614" fill="none" xmlns="http://www.w3.org/2000/svg">
<mask id="mask0_274_93" style="mask-type:alpha" maskUnits="userSpaceOnUse" x="0" y="0" width="1432" height="614">
<rect width="1432" height="614" fill="white"/>
</mask>
<g mask="url(#mask0_274_93)">
<path d="M1128.06 70.1274C1128.06 66.7829 1128.38 63.4576 1128.57 59.6133H1320.37C1320.54 63.5344 1320.85 67.2057 1320.85 70.877C1320.89 104.822 1320.83 138.767 1320.93 172.693C1320.95 180.227 1321.08 187.801 1321.76 195.297C1325.37 235.892 1344.23 258.285 1382.9 266.012C1399.21 269.28 1415.61 270.587 1432 270.049V403.964C1397.54 404.387 1363.12 402.023 1328.74 396.525C1291.2 390.528 1255.11 379.995 1221.97 360.889C1182.09 337.881 1153.61 305.262 1138.9 261.284C1131.56 239.314 1128.21 216.652 1128.09 193.548C1127.92 152.414 1128.04 111.28 1128.06 70.1274Z" fill="#6ABFA5" fill-opacity="0.5"/>
<path d="M1410.81 -26.2101C1410.83 -30.2658 1411.11 -34.5714 1412.48 -38.3004C1415.46 -46.4118 1424.15 -50.3522 1432 -48.5069V63.8035C1430.94 64.0342 1429.84 64.1687 1428.71 64.2072C1419.35 64.5339 1412.21 58.0179 1410.92 47.8306C1410.67 45.7931 1410.73 43.7172 1410.73 41.6605C1410.73 19.037 1410.65 -3.58657 1410.81 -26.2101Z" fill="#6ABFA5" fill-opacity="0.5"/>
<path d="M35.3237 312.709C35.3237 262.714 35.3237 213.271 35.3237 163.213C43.974 163.213 52.1779 162.682 60.2968 163.298C93.5802 165.867 126.587 170.391 158.85 179.248C202.59 191.268 242.951 209.916 275.895 241.794C301.442 266.515 318.785 296.419 327.902 330.867C333.428 351.766 337.36 372.855 335.49 394.54C327.201 396.876 138.298 397.619 122.464 395.432C120.402 386.469 118.66 377.252 116.109 368.247C108.054 339.83 87.9267 324.411 60.1056 317.721C52.0717 315.788 43.9102 314.429 35.3237 312.709Z" fill="#6ABFA5" fill-opacity="0.5"/>
<path d="M335.936 489.071C335.936 485.375 335.575 481.701 335.362 477.454H123.378C123.187 481.786 122.846 485.843 122.846 489.899C122.804 527.406 122.868 564.913 122.761 602.398C122.74 610.724 122.591 619.091 121.848 627.374C117.852 672.229 97.002 696.972 54.2607 705.51C36.2376 709.12 18.1082 710.564 0 709.97V857.937C38.0867 858.404 76.1308 855.792 114.132 849.717C155.62 843.091 195.513 831.452 232.133 810.342C276.213 784.92 307.69 748.878 323.949 700.285C332.068 676.01 335.766 650.97 335.894 625.442C336.085 579.992 335.957 534.542 335.936 489.071Z" fill="#6ABFA5" fill-opacity="0.5"/>
<path d="M23.4216 382.625C23.4003 378.144 23.0815 373.386 21.5725 369.266C18.2782 360.304 8.67152 355.95 0 357.989V482.084C1.16895 482.338 2.38042 482.487 3.63439 482.53C13.9849 482.891 21.8701 475.691 23.2941 464.435C23.5704 462.183 23.5066 459.89 23.5066 457.617C23.5066 432.62 23.5916 407.622 23.4216 382.625Z" fill="#6ABFA5" fill-opacity="0.5"/>
</g>
</svg>
