<svg width="65" height="65" viewBox="0 0 65 65" fill="none" xmlns="http://www.w3.org/2000/svg">
<path d="M46.1094 56.875H18.8906C16.6374 56.8905 14.4207 56.306 12.4681 55.1815C10.5154 54.057 8.89726 52.4331 7.77969 50.4765C6.65669 48.5607 6.0647 46.3801 6.0647 44.1594C6.0647 41.9386 6.65669 39.758 7.77969 37.8422L21.45 14.4625C22.5774 12.5323 24.1908 10.931 26.1295 9.81823C28.0682 8.70542 30.2646 8.11987 32.5 8.11987C34.7354 8.11987 36.9318 8.70542 38.8705 9.81823C40.8092 10.931 42.4226 12.5323 43.55 14.4625L57.1797 37.8422C58.3027 39.758 58.8947 41.9386 58.8947 44.1594C58.8947 46.3801 58.3027 48.5607 57.1797 50.4765C56.0655 52.4271 54.4537 54.0471 52.5089 55.1712C50.564 56.2953 48.3557 56.8832 46.1094 56.875ZM32.5 12.1875C30.9751 12.1738 29.4739 12.5653 28.1499 13.3219C26.8259 14.0785 25.7265 15.1731 24.9641 16.4937L11.3344 39.8937C10.5717 41.1896 10.1695 42.6659 10.1695 44.1695C10.1695 45.6732 10.5717 47.1494 11.3344 48.4453C12.089 49.7818 13.1879 50.8917 14.5167 51.6597C15.8456 52.4277 17.3559 52.8258 18.8906 52.8125H46.1094C47.6476 52.8294 49.1621 52.4331 50.4948 51.6649C51.8276 50.8967 52.9296 49.7848 53.6859 48.4453C54.4486 47.1494 54.8508 45.6732 54.8508 44.1695C54.8508 42.6659 54.4486 41.1896 53.6859 39.8937L40.0359 16.4937C39.2735 15.1731 38.1741 14.0785 36.8501 13.3219C35.5261 12.5653 34.0249 12.1738 32.5 12.1875Z" fill="#FF0000"/>
<path d="M32.5 24.375C32.3263 24.3734 32.1547 24.4131 31.9993 24.4908C31.8439 24.5685 31.7092 24.682 31.6062 24.8219C31.4948 24.9552 31.418 25.1139 31.3826 25.284C31.3471 25.4541 31.3542 25.6302 31.4031 25.7969L32.5 30.225L33.5969 25.7969C33.6458 25.6302 33.6529 25.4541 33.6174 25.284C33.582 25.1139 33.5052 24.9552 33.3937 24.8219C33.2908 24.682 33.1561 24.5685 33.0007 24.4908C32.8453 24.4131 32.6737 24.3734 32.5 24.375Z" fill="#FF0000"/>
<path d="M36.5626 22.3437C36.0755 21.734 35.4573 21.2418 34.7541 20.9036C34.0508 20.5653 33.2805 20.3896 32.5001 20.3896C31.7197 20.3896 30.9493 20.5653 30.2461 20.9036C29.5428 21.2418 28.9247 21.734 28.4376 22.3437C27.947 22.9616 27.6071 23.6854 27.4449 24.4575C27.2827 25.2297 27.3027 26.029 27.5032 26.7921L30.4688 39.0812C30.5789 39.5204 30.8326 39.9103 31.1896 40.1888C31.5465 40.4674 31.9863 40.6187 32.4391 40.6187C32.8919 40.6187 33.3317 40.4674 33.6887 40.1888C34.0457 39.9103 34.2994 39.5204 34.4095 39.0812L37.4766 26.7718C37.6767 26.0133 37.6982 25.2187 37.5396 24.4504C37.381 23.6821 37.0466 22.9611 36.5626 22.3437ZM33.597 25.7968L32.5001 30.225L31.4032 25.7968C31.3543 25.6301 31.3472 25.454 31.3826 25.2839C31.4181 25.1138 31.4949 24.9551 31.6063 24.8218C31.7104 24.6831 31.8453 24.5705 32.0005 24.4929C32.1556 24.4153 32.3266 24.375 32.5001 24.375C32.6735 24.375 32.8446 24.4153 32.9997 24.4929C33.1548 24.5705 33.2898 24.6831 33.3938 24.8218C33.5053 24.9551 33.5821 25.1138 33.6175 25.2839C33.653 25.454 33.6459 25.6301 33.597 25.7968Z" fill="#FF0000"/>
<path d="M32.5 48.75C34.1827 48.75 35.5469 47.3859 35.5469 45.7031C35.5469 44.0204 34.1827 42.6562 32.5 42.6562C30.8173 42.6562 29.4531 44.0204 29.4531 45.7031C29.4531 47.3859 30.8173 48.75 32.5 48.75Z" fill="#FF0000"/>
</svg>
