<svg width="40" height="35" viewBox="0 0 40 35" fill="none" xmlns="http://www.w3.org/2000/svg">
<path d="M38.4415 22.8345H16.7979C15.9371 22.8345 15.2393 24.1958 15.2393 25.875V31.9562C15.2393 33.6354 15.9371 34.9968 16.7979 34.9968H38.4415C39.3024 34.9968 40.0002 33.6354 40.0002 31.9562V25.875C40.0002 24.1958 39.3024 22.8345 38.4415 22.8345Z" fill="#626262"/>
<path d="M1.97006 0H38.0313C38.5774 0.0489321 39.0913 0.517932 39.4606 1.30434C39.8298 2.09074 40.0243 3.13048 40.0015 4.19598V7.96628C40.0243 9.03177 39.8298 10.0715 39.4606 10.8579C39.0913 11.6443 38.5774 12.1133 38.0313 12.1623H1.97006C1.42397 12.1133 0.910024 11.6443 0.540781 10.8579C0.171538 10.0715 -0.0229857 9.03177 -0.000147138 7.96628V4.19598C-0.0229857 3.13048 0.171538 2.09074 0.540781 1.30434C0.910024 0.517932 1.42397 0.0489321 1.97006 0Z" fill="#626262"/>
</svg>
