<svg width="25" height="26" viewBox="0 0 25 26" fill="none" xmlns="http://www.w3.org/2000/svg">
<g clip-path="url(#clip0_2043_574)">
<path d="M8.48214 3.56055H16.5179V1.60742C16.5179 0.960449 17.115 0.435547 17.8571 0.435547C18.5993 0.435547 19.1964 0.960449 19.1964 1.60742V3.56055H21.4286C23.3984 3.56055 25 4.95947 25 6.68555V22.3105C25 24.0342 23.3984 25.4355 21.4286 25.4355H3.57143C1.59877 25.4355 0 24.0342 0 22.3105V6.68555C0 4.95947 1.59877 3.56055 3.57143 3.56055H5.80357V1.60742C5.80357 0.960449 6.40067 0.435547 7.14286 0.435547C7.88504 0.435547 8.48214 0.960449 8.48214 1.60742V3.56055ZM2.67857 22.3105C2.67857 22.7402 3.07812 23.0918 3.57143 23.0918H21.4286C21.9196 23.0918 22.3214 22.7402 22.3214 22.3105V9.81055H2.67857V22.3105Z" fill="#009C8C"/>
</g>
<defs>
<clipPath id="clip0_2043_574">
<rect width="25" height="25" fill="white" transform="translate(0 0.435547)"/>
</clipPath>
</defs>
</svg>
