<svg width="50" height="50" viewBox="0 0 50 50" fill="none" xmlns="http://www.w3.org/2000/svg">
<path d="M9.53117 9.53117C10.1172 8.94532 10.9119 8.61621 11.7405 8.61621C12.5692 8.61621 13.3639 8.94532 13.9499 9.53117L24.9999 20.5812L36.0499 9.53117C36.6393 8.96192 37.4287 8.64694 38.248 8.65406C39.0674 8.66118 39.8512 8.98984 40.4306 9.56924C41.01 10.1486 41.3387 10.9324 41.3458 11.7518C41.3529 12.5712 41.0379 13.3605 40.4687 13.9499L29.4187 24.9999L40.4687 36.0499C41.0379 36.6393 41.3529 37.4287 41.3458 38.248C41.3387 39.0674 41.01 39.8512 40.4306 40.4306C39.8512 41.01 39.0674 41.3387 38.248 41.3458C37.4287 41.3529 36.6393 41.0379 36.0499 40.4687L24.9999 29.4187L13.9499 40.4687C13.3605 41.0379 12.5712 41.3529 11.7518 41.3458C10.9324 41.3387 10.1486 41.01 9.56924 40.4306C8.98984 39.8512 8.66118 39.0674 8.65406 38.248C8.64694 37.4287 8.96192 36.6393 9.53117 36.0499L20.5812 24.9999L9.53117 13.9499C8.94532 13.3639 8.61621 12.5692 8.61621 11.7405C8.61621 10.9119 8.94532 10.1172 9.53117 9.53117Z" fill="white"/>
</svg>
