<svg width="596" height="459" viewBox="0 0 596 459" fill="none" xmlns="http://www.w3.org/2000/svg">
<path d="M221.413 319.659C253.279 328.487 313.483 390.044 276.159 418.915C238.835 447.785 127.322 293.583 221.413 319.659Z" fill="url(#paint0_linear_3291_839)"/>
<path d="M212.794 310.32C347.921 337.865 307.37 408.146 397.512 424.699C519.14 446.998 576.182 264.673 499.934 152.13C438.995 62.1872 333.871 33.776 240.738 70.7132C109.191 122.879 106.148 288.572 212.794 310.32Z" fill="url(#paint1_linear_3291_839)"/>
<path d="M251.141 183.125C255.281 183.122 259.249 181.476 262.177 178.55C265.104 175.623 266.749 171.655 266.753 167.516V60.0361C266.749 56.4679 265.33 53.0468 262.807 50.5237C260.283 48.0006 256.862 46.5816 253.293 46.5781H111.395C107.827 46.5816 104.405 48.0006 101.881 50.5237C99.3578 53.0468 97.9385 56.4679 97.9351 60.0361V167.516C97.9385 171.655 99.5845 175.623 102.511 178.55C105.439 181.476 109.407 183.122 113.547 183.125H251.141Z" fill="white"/>
<path d="M111.382 47.365H253.292C254.957 47.3633 256.606 47.6898 258.144 48.326C259.683 48.9621 261.08 49.8954 262.257 51.0724C263.435 52.2493 264.368 53.6468 265.004 55.1849C265.641 56.723 265.967 58.3715 265.966 60.0359V167.516C265.966 171.447 264.404 175.217 261.623 177.997C258.843 180.776 255.073 182.338 251.141 182.338H113.547C109.615 182.338 105.844 180.776 103.064 177.997C100.284 175.217 98.7219 171.447 98.7219 167.516V60.0359C98.7202 58.3726 99.0464 56.7252 99.6818 55.188C100.317 53.6507 101.25 52.2538 102.425 51.077C103.601 49.9002 104.997 48.9667 106.534 48.3298C108.071 47.6928 109.718 47.365 111.382 47.365ZM111.382 45.7778C107.595 45.7744 103.962 47.2742 101.28 49.9477C98.5991 52.6212 97.089 56.2498 97.082 60.0359V167.516C97.089 171.865 98.8208 176.033 101.897 179.107C104.974 182.18 109.145 183.909 113.494 183.912H251.141C255.49 183.909 259.661 182.18 262.737 179.107C265.814 176.033 267.546 171.865 267.553 167.516V60.0359C267.546 56.2566 266.041 52.634 263.368 49.9616C260.696 47.2892 257.072 45.7848 253.292 45.7778H111.382Z" fill="#D0DFF4"/>
<path d="M124.54 51.6807C124.77 51.6781 124.995 51.744 125.187 51.8698C125.379 51.9956 125.529 52.1758 125.618 52.3872C125.707 52.5987 125.73 52.8318 125.686 53.0569C125.642 53.2821 125.532 53.4889 125.37 53.6512C125.208 53.8134 125.001 53.9236 124.775 53.9677C124.55 54.0118 124.317 53.9878 124.106 53.8989C123.894 53.8099 123.714 53.6599 123.588 53.4681C123.462 53.2763 123.396 53.0513 123.399 52.8219C123.399 52.5193 123.519 52.229 123.733 52.015C123.947 51.801 124.238 51.6807 124.54 51.6807Z" fill="#3F4798"/>
<path d="M119.713 51.6804C119.996 51.7107 120.258 51.8447 120.449 52.0566C120.639 52.2685 120.745 52.5433 120.745 52.8281C120.745 53.113 120.639 53.3878 120.449 53.5997C120.258 53.8115 119.996 53.9455 119.713 53.9758C119.552 53.9931 119.389 53.9762 119.235 53.9264C119.081 53.8766 118.939 53.7949 118.818 53.6867C118.698 53.5784 118.602 53.446 118.536 53.2981C118.47 53.1502 118.436 52.9901 118.436 52.8281C118.436 52.6662 118.47 52.506 118.536 52.3581C118.602 52.2102 118.698 52.0778 118.818 51.9696C118.939 51.8613 119.081 51.7796 119.235 51.7298C119.389 51.68 119.552 51.6631 119.713 51.6804Z" fill="#EE7225"/>
<path d="M114.885 51.6807C115.114 51.6808 115.338 51.7488 115.528 51.8762C115.718 52.0036 115.866 52.1847 115.953 52.3964C116.04 52.6081 116.062 52.8408 116.016 53.0651C115.971 53.2893 115.859 53.495 115.697 53.6559C115.534 53.8168 115.327 53.9257 115.102 53.9687C114.877 54.0118 114.645 53.987 114.434 53.8976C114.223 53.8083 114.044 53.6583 113.919 53.4667C113.793 53.2752 113.728 53.0507 113.731 52.8219C113.731 52.6709 113.76 52.5215 113.819 52.3821C113.877 52.2428 113.962 52.1164 114.069 52.0103C114.177 51.9042 114.304 51.8204 114.444 51.7638C114.584 51.7072 114.734 51.679 114.885 51.6807Z" fill="#445CA7"/>
<path d="M222.541 60.0229H98.7222V61.597H222.541V60.0229Z" fill="#D0DFF4"/>
<mask id="mask0_3291_839" style="mask-type:luminance" maskUnits="userSpaceOnUse" x="98" y="47" width="168" height="136">
<path d="M250.905 182.338L113.783 182.338C109.789 182.338 105.958 180.752 103.133 177.928C100.309 175.104 98.7222 171.274 98.7222 167.28L98.7222 60.2462C98.7222 56.8335 100.078 53.5605 102.492 51.1474C104.905 48.7342 108.179 47.3785 111.592 47.3785L253.096 47.3785C256.509 47.3785 259.783 48.7342 262.196 51.1474C264.61 53.5605 265.966 56.8335 265.966 60.2462V167.28C265.966 171.274 264.379 175.104 261.555 177.928C258.73 180.752 254.899 182.338 250.905 182.338Z" fill="white"/>
</mask>
<g mask="url(#mask0_3291_839)">
<path d="M146.555 90.6115C144.587 79.3966 163.99 76.5633 163.99 76.5633C138.709 56.3239 124.633 80.0131 121.484 91.3067C117.365 106.037 122.205 132.677 129.933 134.711L131.743 132.481L133.973 135.957C138.46 138.226 149.861 140.285 152.878 139.105C152.878 139.105 146.673 91.2936 146.555 90.6115Z" fill="#191F39"/>
<path d="M197.273 136.927C206.457 145.322 218.264 170.808 228.969 189.264C222.908 194.511 230.622 217.4 218.382 222.135C206.929 216.049 190.924 199.836 184.364 186.352C176.06 169.379 171.953 113.724 197.273 136.927Z" fill="#68C1BC"/>
<path d="M177.516 131.169C170.76 131.34 157.05 130.986 151.96 132.481C128.857 139.039 130.287 155.567 131.402 173.563C133.724 210.881 122.311 257.918 122.311 257.918C122.311 257.918 166.522 279.889 205.473 249.182C205.473 249.182 187.88 213.347 205.263 187.388C218.382 167.713 200.016 150.084 197.89 138.567C196.473 130.933 181.045 131.169 177.516 131.169Z" fill="#68C1BC"/>
<path d="M129.264 260.227L129.513 259.112C126.259 258.39 123.99 257.8 122.953 257.511C124.003 253.576 134.039 207.536 131.927 173.563V172.697C130.917 156.446 130.038 142.397 146.358 135.118L145.886 134.081C128.831 141.689 129.723 156.787 130.733 172.763V173.642C133.016 210.369 121.733 257.59 121.655 257.8L121.497 258.338L122.035 258.495C122.035 258.495 124.829 259.23 129.264 260.227Z" fill="#191F39"/>
<path d="M198.323 228.93L199.425 228.641C196.709 218.305 195.607 202.814 205.735 187.69C213.135 176.646 210.445 166.323 207.782 159.528L206.719 159.935C209.343 166.493 211.967 176.449 204.791 187.06C194.427 202.538 195.555 218.371 198.323 228.93Z" fill="white"/>
<path d="M143.682 135.786C146.221 134.195 149.024 133.071 151.96 132.468C162.774 130.743 173.762 130.382 184.666 131.392C190.504 131.536 191.921 136.862 191.121 142.646C189.192 156.734 158.375 154.635 143.682 135.786Z" fill="#F4A3A2"/>
<path d="M173.987 191.507C182.134 182.522 178.92 170.52 178.881 170.363L177.792 170.664C177.792 170.782 180.862 182.233 173.147 190.746L173.987 191.507Z" fill="white"/>
<path d="M90.8111 219.617C91.2965 208.008 108.522 166.716 130.995 144.85C152.379 124.034 161.576 158.544 154.059 172.947C148.995 182.653 122.573 222.975 115.108 228.444C104.376 236.275 90.5225 225.9 90.8111 219.617Z" fill="#68C1BC"/>
<path d="M91.6116 218.226C94.6552 194.957 111.29 172.317 111.474 172.081L110.569 171.399C110.398 171.635 93.5139 194.524 90.4702 218.082L91.6116 218.226Z" fill="white"/>
<path d="M181.321 118.052V138.843C180.179 140.522 173.987 147.867 158.336 137.531V109.448C165.823 112.761 173.498 115.634 181.321 118.052Z" fill="#F4A3A2"/>
<path d="M181.32 124.401V133.583C169.146 133.832 168.844 121.646 168.87 121.659C172.523 124.117 176.973 125.096 181.32 124.401Z" fill="#191F39"/>
<path d="M181.727 125.175C175.168 126.159 161.891 119.115 158.323 113.553C157.011 111.573 156.539 105.854 157.011 103.06C158.323 94.0748 159.346 86.0079 165.63 82.5844C168.254 81.1678 179.786 80.066 182.423 79.6593C188.458 78.7149 189.638 88.0673 191.042 96.7113C192.577 106.392 193.259 123.47 181.727 125.175Z" fill="#F4A3A2"/>
<path d="M183.669 109.12L183.223 108.149C184.456 107.598 186.332 106.457 186.45 105.736C186.45 105.736 186.45 105.591 186.306 105.434C182.816 102.22 182.842 96.0816 182.842 95.8324V95.5962L183.013 95.4389C183.875 94.7426 184.882 94.2472 185.96 93.9886C187.038 93.7299 188.16 93.7145 189.244 93.9435L189.061 94.9929C188.175 94.8147 187.261 94.8194 186.377 95.0066C185.493 95.1938 184.656 95.5596 183.918 96.0816C183.918 97.2227 184.259 102.089 187.04 104.647C187.232 104.801 187.377 105.005 187.458 105.237C187.539 105.469 187.554 105.719 187.5 105.959C187.277 107.454 184.285 108.871 183.669 109.12Z" fill="#191F39"/>
<path d="M176.296 62.4629C165.801 64.1156 157.391 67.9982 148.562 77.4161C139.733 86.8341 155.856 116.295 158.034 118.761C158.273 119.05 158.562 119.295 158.887 119.482L156.709 105.499L163.99 101.853C163.99 98.1015 162.324 97.0653 161.891 94.232C160.579 86.2701 176.322 82.4268 186.28 81.5611C194.164 80.9315 195.765 59.4329 176.296 62.4629Z" fill="#191F39"/>
<path d="M162.678 101.525C163.226 102.618 163.438 103.848 163.286 105.06C163.135 106.273 162.627 107.413 161.827 108.337C161.027 109.261 159.971 109.927 158.793 110.251C157.614 110.575 156.366 110.542 155.206 110.157C154.046 109.772 153.027 109.051 152.277 108.087C151.526 107.122 151.079 105.956 150.992 104.738C150.904 103.519 151.18 102.301 151.784 101.239C152.388 100.177 153.294 99.3179 154.387 98.7706C155.852 98.0369 157.548 97.9148 159.103 98.4314C160.658 98.9479 161.944 100.061 162.678 101.525Z" fill="#F4A3A2"/>
<path d="M157.155 107.756C156.598 107.84 156.029 107.799 155.489 107.638L155.791 106.601C155.791 106.601 157.339 107.008 157.654 106.273C157.664 106.221 157.664 106.168 157.654 106.116L157.365 105.919C157.008 105.736 156.715 105.448 156.525 105.094C156.336 104.741 156.258 104.338 156.302 103.939C156.356 103.297 156.598 102.686 156.998 102.181C157.365 101.643 157.431 101.551 156.735 100.961C156.653 100.881 156.553 100.822 156.444 100.788C156.334 100.754 156.219 100.746 156.106 100.764C155.03 100.948 153.731 102.679 153.351 103.283L152.445 102.719C152.616 102.43 154.23 99.9773 155.935 99.715C156.2 99.676 156.47 99.6958 156.726 99.7729C156.982 99.85 157.218 99.9824 157.417 100.161C158.729 101.302 158.388 102.024 157.85 102.784C157.57 103.14 157.393 103.567 157.339 104.017C157.339 104.608 157.549 104.765 157.929 105.014C158.231 105.162 158.464 105.42 158.581 105.735C158.699 106.05 158.691 106.397 158.559 106.706C158.433 106.986 158.238 107.229 157.992 107.412C157.747 107.596 157.459 107.714 157.155 107.756Z" fill="#191F39"/>
<path d="M187.093 112.071C187.093 112.071 182.121 115.875 177.333 113.212C177.333 113.212 180.402 118.656 183.512 118.223C186.621 117.79 187.093 112.071 187.093 112.071Z" fill="#191F39"/>
<path d="M177.648 95.7536C177.569 95.6487 175.522 93.2352 170.078 95.3077L169.697 94.3108C175.929 91.9366 178.395 94.9666 178.5 95.0978L177.648 95.7536Z" fill="#191F39"/>
<path d="M173.029 99.6887C173.063 99.9668 173.152 100.235 173.291 100.478C173.431 100.721 173.618 100.934 173.841 101.103C174.064 101.272 174.319 101.394 174.591 101.463C174.863 101.531 175.145 101.544 175.422 101.501C175.699 101.458 175.964 101.359 176.202 101.211C176.44 101.063 176.646 100.869 176.807 100.64C176.968 100.411 177.081 100.152 177.14 99.8778C177.199 99.6039 177.202 99.321 177.149 99.0459C177.047 98.5154 176.743 98.0451 176.3 97.7343C175.858 97.4235 175.313 97.2964 174.779 97.3797C174.245 97.463 173.764 97.7503 173.438 98.181C173.112 98.6117 172.965 99.1522 173.029 99.6887Z" fill="#191F39"/>
<path d="M185.348 98.3769C185.382 98.655 185.471 98.9236 185.61 99.1665C185.75 99.4095 185.937 99.6219 186.16 99.791C186.383 99.9601 186.638 100.083 186.91 100.151C187.182 100.219 187.464 100.232 187.741 100.189C188.018 100.146 188.283 100.048 188.521 99.8996C188.759 99.7517 188.965 99.5574 189.126 99.3282C189.287 99.0991 189.4 98.8399 189.459 98.566C189.518 98.2921 189.521 98.0092 189.468 97.7342C189.366 97.2036 189.061 96.7334 188.619 96.4226C188.177 96.1117 187.632 95.9846 187.098 96.0679C186.564 96.1512 186.083 96.4385 185.757 96.8692C185.43 97.2999 185.284 97.8404 185.348 98.3769Z" fill="#191F39"/>
<path d="M235.044 140.666L245.408 142.568C247.861 154.137 247.704 198.682 237.996 212.442C232.499 220.246 223.788 224.588 220.022 223.027C210.839 219.236 211.547 208.06 214.237 197.291C214.604 195.783 235.044 140.666 235.044 140.666Z" fill="#F4A3A2"/>
<path d="M239.334 133.084C240.832 132.588 242.091 131.549 242.863 130.172C243.157 128.39 243.099 126.568 242.692 124.808C242.351 122.591 242.613 120.361 244.699 119.561C247.055 118.509 249.495 117.658 251.994 117.016C253.397 117.016 255.929 127.89 255.929 127.89C255.929 127.89 254.617 115.967 255.929 111.678C256.27 110.576 257.504 111.153 258.16 112.11C261.138 116.478 259.38 129.831 259.38 129.831C259.38 129.831 258.855 137.085 253.069 138.869C247.284 140.653 246.247 147.657 246.247 147.657C246.51 157.797 235.07 152.274 235.516 150.176C235.372 148.746 232.905 134.54 239.334 133.084Z" fill="#F4A3A2"/>
<path d="M245.434 119.364L247.441 130.159C247.441 130.159 247.113 123.011 245.434 119.364Z" fill="#D18081"/>
<path d="M248.806 117.882L252.348 130.185C252.348 130.185 250.826 121.332 248.806 117.882Z" fill="#D18081"/>
</g>
<path d="M295.326 39.5083H226.962C221.22 39.5083 215.713 41.7881 211.651 45.8466C207.589 49.905 205.306 55.4099 205.302 61.1512C205.302 66.8947 207.584 72.403 211.646 76.4643C215.708 80.5256 221.218 82.8072 226.962 82.8072H295.326C301.071 82.8072 306.58 80.5256 310.642 76.4643C314.704 72.403 316.986 66.8947 316.986 61.1512C316.983 55.4099 314.699 49.905 310.637 45.8466C306.576 41.7881 301.068 39.5083 295.326 39.5083Z" fill="#2986C8"/>
<path d="M255.811 80.8525L218.959 105.001L221.924 80.8525H255.811Z" fill="#2986C8"/>
<path d="M276.592 60.1806C276.602 59.1244 276.925 58.0949 277.52 57.2218C278.114 56.3486 278.953 55.6708 279.932 55.2738C280.911 54.8768 281.986 54.7783 283.021 54.9907C284.056 55.203 285.004 55.7168 285.748 56.4673C286.491 57.2178 286.996 58.1715 287.198 59.2081C287.4 60.2448 287.291 61.3182 286.885 62.293C286.478 63.2678 285.792 64.1006 284.913 64.6863C284.034 65.2721 283.001 65.5847 281.945 65.5847C281.237 65.5848 280.537 65.4446 279.884 65.1724C279.231 64.9002 278.639 64.5013 278.141 63.9988C277.643 63.4962 277.25 62.9001 276.984 62.2447C276.718 61.5893 276.585 60.8878 276.592 60.1806Z" fill="white"/>
<path d="M255.825 60.1804C255.835 59.1226 256.159 58.0916 256.755 57.2176C257.351 56.3436 258.193 55.6659 259.174 55.2701C260.155 54.8743 261.232 54.7781 262.268 54.9937C263.304 55.2093 264.252 55.727 264.994 56.4814C265.736 57.2358 266.237 58.1931 266.435 59.2323C266.633 60.2716 266.518 61.3461 266.106 62.3202C265.693 63.2943 265.001 64.1243 264.117 64.7054C263.233 65.2864 262.196 65.5923 261.138 65.5846C260.433 65.5812 259.736 65.4384 259.087 65.1645C258.438 64.8906 257.85 64.4909 257.356 63.9886C256.862 63.4862 256.472 62.8911 256.21 62.2375C255.947 61.5839 255.816 60.8848 255.825 60.1804Z" fill="white"/>
<path d="M234.991 60.1806C235.001 59.1244 235.324 58.0949 235.918 57.2218C236.513 56.3486 237.352 55.6708 238.331 55.2738C239.31 54.8768 240.385 54.7783 241.42 54.9907C242.454 55.203 243.403 55.7168 244.147 56.4673C244.89 57.2178 245.395 58.1715 245.597 59.2081C245.799 60.2448 245.69 61.3182 245.284 62.293C244.877 63.2678 244.191 64.1006 243.312 64.6863C242.433 65.2721 241.4 65.5847 240.344 65.5847C239.636 65.5848 238.936 65.4446 238.283 65.1724C237.63 64.9002 237.038 64.5013 236.54 63.9988C236.042 63.4962 235.649 62.9001 235.383 62.2447C235.117 61.5893 234.984 60.8878 234.991 60.1806Z" fill="white"/>
<mask id="mask1_3291_839" style="mask-type:luminance" maskUnits="userSpaceOnUse" x="213" y="88" width="392" height="339">
<path d="M306.005 426.575H509.025L562.682 309.572L604.231 255.793L498.346 186.758L445.869 126.683C445.869 126.683 405.475 88.644 404.032 89.431C402.589 90.218 359.466 86.5715 352.985 88.6702C346.504 90.7689 328.649 94.2449 325.186 97.9963C321.722 101.748 275.333 159.16 272.25 165.496C269.167 171.831 213.751 339.439 213.751 339.439L289.134 391.907L306.005 426.575Z" fill="white"/>
</mask>
<g mask="url(#mask1_3291_839)">
<path d="M332.808 395.987C302.017 463.998 314.139 553.009 320.358 578.075C329.856 616.351 382.425 605.45 401.041 588.228C435.702 556.157 429.483 452.415 427.686 429.382C423.37 376.075 352.985 351.428 332.808 395.987Z" fill="#445CA7"/>
<g opacity="0.4">
<path d="M358.285 401.823C386.111 477.901 368.112 541.4 374.33 566.467C383.815 604.742 426.636 609.385 445.239 592.163C479.9 560.092 473.695 456.337 471.845 433.317C467.568 380.01 341.48 355.875 358.285 401.823Z" fill="#191F39"/>
</g>
<path d="M268.944 291.93C279.675 281.554 290.918 271.507 290.918 271.507C319.308 248.854 357.419 289.621 337.924 312.091C318.429 334.56 287.179 352.097 270.334 354.157C269.172 354.302 267.994 354.262 266.844 354.038C261.846 353.566 253.948 349.736 249.186 342.627L268.944 291.93Z" fill="#F4A3A2"/>
<path d="M381.834 411.346C381.611 521.384 381.008 544.365 387.226 569.431C396.712 607.706 439.533 612.35 458.07 595.127C492.731 563.03 486.526 459.302 484.676 436.281C480.465 383.014 381.939 362.433 381.834 411.346Z" fill="#445CA7"/>
<path d="M401.999 212.179C416.141 242.938 383.5 297.137 308.38 352.451C308.38 352.451 290.551 326.126 277.353 277.068C296.707 256.448 317.298 237.025 339.013 218.908C374.698 189.159 396.095 199.377 401.999 212.179Z" fill="#68C1BC"/>
<path d="M280.042 266.601C276.802 270.995 273.155 275.783 273.155 275.783C273.232 279.195 273.671 282.59 274.467 285.909C285.408 328.815 313.496 370.815 313.496 370.815L327.35 357.606C312.093 332.5 285.487 287.588 280.042 266.601Z" fill="#191F39"/>
<path d="M312.434 370.789C309.298 366.487 283.388 324.303 273.64 286.08C272.815 282.688 272.349 279.22 272.25 275.731V275.455L272.446 275.206C272.446 275.206 276.133 270.431 279.321 266.09L280.436 264.581L280.908 266.405C281.967 270.381 283.281 274.285 284.844 278.092L283.191 278.761C281.821 275.45 280.625 272.07 279.609 268.634C277.156 271.94 274.69 275.193 273.994 276.045C274.108 279.286 274.548 282.507 275.306 285.66C284.988 323.699 310.728 365.49 313.824 369.753L312.434 370.789Z" fill="white"/>
<path d="M416.902 192.478C475.545 196.977 501.547 354.865 473.183 445.936C473.183 445.936 401.448 465.112 313.864 426.667C313.864 426.667 318.18 351.782 339 332.146C339 332.146 345.206 252.356 365.488 220.508C385.77 188.66 403.271 191.507 416.902 192.478Z" fill="white"/>
<path d="M347.265 457.098C355.871 458.108 367.889 419.833 368.033 398.216C368.033 390.425 367.167 340.187 368.453 325.785C369.738 311.382 375.721 219.708 383.212 199.469C375.432 203.155 372.926 206.027 363.953 220.128C343.671 251.976 345.402 299.485 332.467 327.988C320.659 354.052 304.798 463.394 304.798 463.394C321.932 459.092 336.179 455.616 347.265 457.098Z" fill="#68C1BC"/>
<path d="M358.876 402.335L357.17 401.81C360.201 392.012 359.348 384.588 354.677 359.561C349.863 333.72 353.038 255.15 353.064 254.35L353.143 252.369L354.572 253.681C357.196 256.147 360.489 259.374 362.956 261.722C361.722 258.823 360.332 255.308 359.781 253.852L359.676 253.589V253.314C364.333 234.229 380.404 201.554 380.562 201.227L382.162 202.014C382.005 202.341 366.183 234.53 361.473 253.471C362.901 257.389 364.534 261.229 366.367 264.975L366.891 265.631L366.34 266.273C366.065 266.536 365.894 266.693 365.028 266.09H364.963L364.819 265.88C363.507 264.87 360.817 262.286 354.664 256.357C354.205 268.792 352.04 335.832 356.33 359.167C361.158 384.614 362.09 392.196 358.876 402.335Z" fill="white"/>
<path d="M416.915 192.438C416.915 192.438 397.997 218.751 397.827 243.594C397.617 272.451 384.248 305.493 395.321 372.704C405.816 436.649 376.455 456.259 375.917 456.993C420.392 475.855 490.973 447.247 490.973 447.247C503.449 352.845 475.558 196.924 416.915 192.438Z" fill="#68C1BC"/>
<path d="M394.888 437.698L393.183 437.174C394.69 432.167 396.576 427.282 398.824 422.561C403.009 413.458 406.315 406.257 407.784 375.131C409.739 333.852 408.703 259.702 408.545 249.589L402.169 251.399L407.797 242.492C412.368 226.725 415.227 210.51 416.325 194.13L418.122 194.222C417.001 210.775 414.107 227.16 409.49 243.096L409.398 243.319L406.184 248.382L410.316 247.215V248.382C410.316 249.195 411.628 331.018 409.568 375.196C408.086 406.677 404.714 413.996 400.385 423.283C398.192 427.942 396.354 432.761 394.888 437.698Z" fill="white"/>
<path d="M492.193 304.588L413.124 236.642C413.124 236.642 402.76 317.298 492.193 304.588Z" fill="#191F39"/>
<path d="M433.327 403.397C428.309 403.529 423.302 402.847 418.502 401.377L419.106 399.698C434.206 405.194 471.478 397.075 471.845 396.996L472.239 398.741C470.979 398.977 450.238 403.502 433.327 403.397Z" fill="white"/>
<path d="M353.038 120.833C348.577 131.864 354.284 157.691 372.297 172.881C390.309 188.07 384.274 201.502 384.274 201.502C384.274 201.502 422.123 185.303 428.88 175.36C425.262 171.034 422.73 165.908 421.494 160.407C424.437 164.702 428.334 168.257 432.881 170.795C432.881 170.795 443.757 172.015 450.067 158.741C450.067 158.741 430.388 151.159 418.922 124.755C407.456 98.3506 387.121 97.6685 377.426 100.226C367.731 102.784 357.118 110.72 353.038 120.833Z" fill="#191F39"/>
<path d="M370.932 166.427L382.267 203.155C382.267 203.155 405.147 211.025 416.902 192.517L406.695 155.252L370.932 166.427Z" fill="#F4A3A2"/>
<path d="M376.219 181.866L379.932 193.75C403.638 193.986 405.081 162.781 405.081 162.781C380.627 170.913 376.219 181.866 376.219 181.866Z" fill="#191F39"/>
<path d="M382.044 186.824C391.556 184.201 405.489 166.611 406.971 156.865C407.522 153.402 404.78 145.283 402.471 141.636C395.203 130.198 389.024 119.705 378.41 118.865C374.23 118.563 370.047 119.426 366.328 121.358C354.625 127.247 348.302 138.016 351.595 150.7C355.334 164.919 365.265 191.415 382.044 186.824Z" fill="#F4A3A2"/>
<path d="M367.259 165.496C366.275 165.391 361.342 164.735 360.266 162.623C360.099 162.295 360.021 161.928 360.039 161.56C360.058 161.192 360.172 160.835 360.371 160.525C363.179 155.593 361.539 149.782 361.159 148.601C360.118 147.807 358.868 147.335 357.562 147.244C356.256 147.153 354.952 147.447 353.812 148.09L352.985 146.503C354.483 145.679 356.194 145.327 357.896 145.49C359.597 145.654 361.21 146.327 362.523 147.421L362.68 147.565L362.759 147.762C362.864 148.064 365.449 155.199 361.92 161.403C361.788 161.653 361.828 161.745 361.92 161.81C362.339 162.65 365.147 163.463 367.508 163.725L367.259 165.496Z" fill="#191F39"/>
<path d="M400.647 139.039C400.647 139.039 385.875 127.864 373.635 127.785C373.635 127.785 352.408 135.157 350.965 146.739C350.965 146.739 342.083 123.81 366.118 114.471C389.47 105.421 400.595 128.703 400.647 139.039Z" fill="#191F39"/>
<path d="M375.117 128.546L373.346 128.27C373.805 124.239 375.802 120.541 378.922 117.947L379.945 119.403C377.262 121.75 375.542 125.007 375.117 128.546Z" fill="#F4A3A2"/>
<path d="M396.2 147.093C396.479 148.885 397.283 150.554 398.51 151.89C399.736 153.226 401.332 154.169 403.094 154.6C404.856 155.03 406.706 154.929 408.411 154.31C410.116 153.69 411.599 152.579 412.673 151.118C413.748 149.657 414.365 147.91 414.448 146.098C414.53 144.286 414.074 142.49 413.137 140.937C412.2 139.384 410.824 138.144 409.183 137.372C407.541 136.6 405.708 136.331 403.914 136.6C402.717 136.779 401.567 137.193 400.53 137.818C399.494 138.443 398.591 139.267 397.874 140.242C397.157 141.218 396.64 142.325 396.353 143.501C396.065 144.676 396.013 145.897 396.2 147.093Z" fill="#F4A3A2"/>
<path d="M407.588 152.314C407.402 152.392 407.209 152.45 407.01 152.484C406.677 152.543 406.334 152.532 406.005 152.453C405.676 152.374 405.366 152.228 405.095 152.025C404.638 151.71 404.312 151.239 404.179 150.7C404.046 150.16 404.115 149.591 404.373 149.1C404.544 148.743 404.613 148.345 404.571 147.952C404.529 147.558 404.379 147.184 404.137 146.87C403.596 146.182 402.905 145.626 402.117 145.244C400.989 144.614 399.296 143.643 400.674 141.151C402.589 137.701 408.755 140.089 409.018 140.194L408.362 141.859C407.05 141.348 403.206 140.299 402.248 142.017C401.723 142.974 401.763 143.001 402.996 143.696C404.024 144.196 404.922 144.928 405.62 145.834C406.018 146.374 406.272 147.007 406.357 147.673C406.442 148.339 406.355 149.015 406.105 149.638C405.869 150.359 405.882 150.372 406.184 150.582C406.257 150.645 406.343 150.691 406.436 150.716C406.529 150.741 406.627 150.744 406.722 150.727C407.447 150.438 408.059 149.923 408.467 149.257L409.962 150.228C409.38 151.13 408.557 151.852 407.588 152.314Z" fill="#191F39"/>
<path d="M379.67 144.063C371.72 141.44 370.093 144.758 370.08 144.798L368.427 144.102C368.519 143.906 370.578 139.118 380.234 142.371L379.67 144.063Z" fill="#191F39"/>
<path d="M367.994 172.212C368.331 173.238 368.876 174.184 369.595 174.99C370.314 175.796 371.191 176.446 372.172 176.899C373.153 177.352 374.216 177.598 375.297 177.622C376.377 177.646 377.45 177.447 378.45 177.038C379.45 176.63 380.355 176.019 381.109 175.246C381.863 174.472 382.45 173.551 382.832 172.541C383.215 171.531 383.386 170.453 383.334 169.374C383.282 168.295 383.008 167.239 382.53 166.27C377.875 168.689 373.01 170.678 367.994 172.212Z" fill="#191F39"/>
<path d="M373.228 177.367L373.307 177.629C374.441 177.975 375.638 178.06 376.81 177.878C377.837 177.719 378.822 177.358 379.708 176.816C380.595 176.273 381.366 175.561 381.975 174.72C382.585 173.878 383.022 172.924 383.262 171.913C383.501 170.902 383.537 169.853 383.369 168.828C383.212 167.398 371.431 171.491 373.228 177.367Z" fill="#EA516B"/>
<path d="M401.067 162.558C397.906 158.898 397.551 154.937 397.197 151.107C396.909 147.814 396.62 144.706 394.652 141.807C392.688 139.188 390.199 137.008 387.345 135.406C384.248 133.399 381.061 131.326 379.263 127.404L380.89 126.67C382.464 130.12 385.311 131.917 388.315 133.91C391.397 135.623 394.08 137.971 396.187 140.797C398.417 144.089 398.732 147.565 399.034 150.936C399.375 154.661 399.69 158.177 402.471 161.43L401.067 162.558Z" fill="#191F39"/>
<path d="M376.351 146.831C376.428 147.209 376.391 147.601 376.245 147.958C376.1 148.316 375.852 148.622 375.532 148.838C375.213 149.055 374.836 149.172 374.451 149.175C374.065 149.178 373.687 149.067 373.364 148.855C373.041 148.644 372.788 148.342 372.637 147.987C372.486 147.632 372.443 147.24 372.514 146.861C372.585 146.482 372.767 146.132 373.036 145.856C373.306 145.58 373.651 145.389 374.029 145.309C374.281 145.255 374.542 145.252 374.795 145.3C375.049 145.347 375.291 145.445 375.507 145.586C375.723 145.728 375.908 145.91 376.053 146.124C376.198 146.338 376.299 146.578 376.351 146.831Z" fill="#191F39"/>
<path d="M359.466 152.786C359.546 153.164 359.512 153.557 359.368 153.915C359.224 154.274 358.977 154.582 358.659 154.8C358.34 155.019 357.964 155.138 357.578 155.143C357.191 155.147 356.812 155.038 356.488 154.827C356.164 154.617 355.91 154.315 355.758 153.96C355.605 153.605 355.561 153.213 355.631 152.833C355.701 152.454 355.882 152.103 356.152 151.826C356.421 151.549 356.766 151.358 357.144 151.277C357.396 151.223 357.655 151.22 357.908 151.266C358.161 151.313 358.403 151.409 358.618 151.549C358.834 151.69 359.02 151.871 359.166 152.083C359.311 152.295 359.413 152.534 359.466 152.786Z" fill="#191F39"/>
<path d="M511.255 277.357C497.913 293.727 469.457 347.231 465.968 353.815C459.439 360.839 452.148 367.112 444.229 372.52C432.645 380.744 429.798 389.048 429.26 394.058C429.142 394.806 424.419 424.358 428.184 432.661C429.024 434.498 432.474 434.537 432.553 432.32C432.855 423.676 436.922 400.59 436.922 400.59C436.922 400.59 447.273 419.439 449.884 418.731C451.379 418.311 457.296 413.956 462.098 410.297C465.535 407.673 464.905 403.397 463.134 399.462C460.996 394.688 459.815 390.936 460.09 389.598C460.405 388.011 462.321 386.673 463.777 385.86H463.987C474.023 387.172 478.418 374.501 479.612 370.435C489.989 354.353 530.422 327.805 550.141 300.6C563.483 282.276 533.02 250.651 511.255 277.357Z" fill="#F4A3A2"/>
<path d="M460.812 410.953L451.628 391.933C451.628 391.933 455.84 405.076 460.812 410.953Z" fill="#D18081"/>
<path d="M455.328 415.452L442.484 394.465C442.484 394.465 449.805 410.087 455.328 415.452Z" fill="#D18081"/>
<path d="M426.715 209.871C452.297 187.69 496.995 210.605 572.181 265.709C572.181 265.709 545.549 289.228 483.574 305.139C483.574 305.139 478.155 297.137 438.457 273.002C398.758 248.867 412.1 222.581 426.715 209.871Z" fill="#68C1BC"/>
<path d="M571.853 264.437L570.764 265.854C508.015 217.872 468.159 199.036 437.486 202.892L437.263 201.122C468.448 197.2 508.697 216.141 571.853 264.437Z" fill="white"/>
<path d="M471.229 299.538C475.597 302.804 480.307 306.49 480.307 306.49C483.724 306.413 487.124 305.974 490.448 305.178C533.44 294.527 575.618 266.732 575.618 266.732L562.499 252.789C537.349 267.939 492.259 294.225 471.229 299.538Z" fill="#191F39"/>
<path d="M575.644 267.847C571.315 270.956 528.94 296.573 490.658 306.07C487.265 306.876 483.794 307.315 480.307 307.382H480.005L479.756 307.185C479.756 307.185 475.007 303.473 470.691 300.246L469.182 299.131L471.006 298.672C474.993 297.62 478.907 296.305 482.721 294.737L483.39 296.403C480.068 297.748 476.679 298.921 473.236 299.918C476.529 302.397 479.717 304.876 480.609 305.571C483.856 305.47 487.083 305.03 490.238 304.26C528.284 294.842 570.266 269.408 574.608 266.326L575.644 267.847Z" fill="white"/>
<path d="M338.029 241.876L310.925 234.255C309.507 233.946 308.233 233.175 307.3 232.065C306.367 230.954 305.829 229.565 305.769 228.116L301.978 161.049C301.978 158.269 305.113 153.993 309.364 154.74L339.538 159.987C340.955 160.296 342.23 161.066 343.163 162.177C344.096 163.288 344.634 164.676 344.694 166.126L345.783 235.094C345.783 238.046 343.014 242.742 338.029 241.876Z" fill="#21142F"/>
<path d="M338.03 241.876L308.144 236.629C306.727 236.32 305.452 235.55 304.519 234.439C303.586 233.328 303.048 231.939 302.988 230.49L301.899 161.522C301.854 160.906 301.947 160.289 302.172 159.715C302.396 159.14 302.747 158.623 303.197 158.202C303.648 157.781 304.187 157.465 304.775 157.279C305.363 157.093 305.985 157.042 306.596 157.127L336.77 162.374C338.187 162.683 339.462 163.454 340.395 164.564C341.328 165.675 341.866 167.064 341.926 168.513L343.015 237.495C343.065 238.137 342.965 238.782 342.723 239.379C342.481 239.975 342.103 240.507 341.619 240.933C341.135 241.358 340.559 241.664 339.936 241.828C339.313 241.992 338.66 242.008 338.03 241.876Z" fill="#D0DFF4"/>
<path d="M307.894 237.639C306.257 237.268 304.787 236.369 303.713 235.079C302.639 233.789 302.02 232.181 301.951 230.504L300.862 161.522C300.83 160.742 300.967 159.964 301.264 159.242C301.561 158.519 302.01 157.87 302.581 157.337C303.132 156.83 303.788 156.45 304.502 156.224C305.216 155.997 305.971 155.929 306.714 156.026L336.967 161.272C338.606 161.641 340.079 162.539 341.156 163.83C342.233 165.12 342.854 166.729 342.923 168.408L343.998 237.377C344.04 238.183 343.897 238.988 343.581 239.731C343.265 240.475 342.784 241.136 342.175 241.666C341.574 242.167 340.868 242.527 340.11 242.72C339.352 242.912 338.56 242.933 337.793 242.781L307.894 237.534V237.639ZM336.652 163.437L306.477 158.19C306.041 158.133 305.597 158.171 305.176 158.3C304.755 158.429 304.367 158.646 304.037 158.938C303.688 159.276 303.416 159.685 303.24 160.138C303.063 160.591 302.986 161.076 303.014 161.561L304.103 230.53C304.157 231.729 304.602 232.878 305.369 233.801C306.136 234.725 307.184 235.372 308.354 235.645L338.239 240.892C338.697 240.982 339.169 240.971 339.622 240.86C340.075 240.749 340.498 240.54 340.863 240.249C341.228 239.921 341.515 239.514 341.704 239.061C341.892 238.607 341.977 238.117 341.952 237.626L340.876 168.657C340.835 167.446 340.4 166.282 339.638 165.34C338.876 164.398 337.828 163.73 336.652 163.437Z" fill="#191F39"/>
<path d="M327.206 199.22C327.329 199.246 327.455 199.246 327.578 199.219C327.7 199.192 327.815 199.138 327.915 199.062C328.01 198.969 328.086 198.856 328.135 198.732C328.185 198.608 328.208 198.475 328.203 198.341L327.77 171.149C327.75 170.777 327.612 170.42 327.376 170.13C327.141 169.84 326.819 169.632 326.458 169.536L314.651 167.45C314.537 167.435 314.421 167.443 314.31 167.474C314.2 167.506 314.097 167.56 314.008 167.634C313.92 167.729 313.851 167.841 313.806 167.962C313.761 168.084 313.741 168.213 313.746 168.342L314.179 195.534C314.195 195.908 314.332 196.267 314.568 196.557C314.804 196.848 315.128 197.055 315.491 197.147L327.206 199.22Z" fill="#21142F"/>
<path d="M317.222 174.809C317.354 175.359 317.643 175.859 318.055 176.247C318.467 176.635 318.984 176.894 319.541 176.992C320.098 177.089 320.672 177.022 321.192 176.798C321.711 176.574 322.154 176.202 322.465 175.73C322.776 175.257 322.942 174.704 322.942 174.138C322.942 173.572 322.777 173.019 322.467 172.546C322.156 172.073 321.714 171.701 321.195 171.476C320.676 171.251 320.102 171.183 319.545 171.281C319.16 171.359 318.794 171.512 318.469 171.732C318.144 171.952 317.865 172.234 317.649 172.562C317.434 172.89 317.285 173.257 317.212 173.643C317.138 174.029 317.142 174.425 317.222 174.809Z" fill="white"/>
<path d="M320.318 172.304C320.723 172.396 321.091 172.608 321.374 172.912C321.657 173.216 321.843 173.598 321.906 174.009C321.997 174.546 321.885 175.098 321.591 175.557C321.457 175.76 321.283 175.935 321.08 176.07C320.877 176.205 320.65 176.298 320.41 176.344C320.215 176.376 320.015 176.376 319.82 176.344C319.416 176.257 319.048 176.048 318.767 175.745C318.485 175.442 318.303 175.061 318.246 174.652C318.189 174.401 318.183 174.142 318.227 173.889C318.271 173.636 318.365 173.394 318.503 173.177C318.64 172.96 318.819 172.773 319.03 172.625C319.24 172.477 319.477 172.373 319.728 172.317C319.924 172.29 320.122 172.29 320.318 172.317V172.304ZM320.515 171.294C320.043 171.206 319.557 171.239 319.101 171.389C318.646 171.539 318.235 171.801 317.907 172.151C317.579 172.501 317.344 172.928 317.225 173.392C317.105 173.857 317.104 174.344 317.222 174.809C317.317 175.426 317.598 176 318.027 176.455C318.455 176.909 319.012 177.223 319.623 177.354C319.944 177.414 320.273 177.414 320.594 177.354C320.977 177.275 321.342 177.123 321.666 176.903C321.99 176.684 322.268 176.404 322.484 176.077C322.699 175.751 322.848 175.385 322.923 175.001C322.997 174.617 322.995 174.222 322.916 173.838C322.824 173.22 322.545 172.644 322.116 172.189C321.686 171.734 321.128 171.421 320.515 171.294Z" fill="#191F39"/>
<path d="M317.485 183.965C317.613 184.516 317.9 185.017 318.31 185.407C318.721 185.797 319.236 186.059 319.793 186.159C320.35 186.26 320.925 186.195 321.445 185.973C321.966 185.752 322.41 185.382 322.724 184.911C323.037 184.439 323.205 183.886 323.208 183.32C323.21 182.754 323.047 182.2 322.739 181.726C322.43 181.251 321.989 180.878 321.47 180.651C320.952 180.424 320.378 180.354 319.82 180.449C319.047 180.611 318.368 181.07 317.931 181.728C317.494 182.386 317.334 183.189 317.485 183.965Z" fill="white"/>
<path d="M320.633 181.472C321.037 181.56 321.405 181.769 321.686 182.071C321.968 182.374 322.15 182.755 322.208 183.165C322.304 183.7 322.196 184.252 321.906 184.712C321.772 184.916 321.599 185.091 321.396 185.226C321.193 185.362 320.965 185.454 320.725 185.499C320.525 185.526 320.322 185.526 320.122 185.499C319.719 185.405 319.354 185.192 319.073 184.888C318.793 184.584 318.61 184.203 318.547 183.794C318.438 183.288 318.532 182.759 318.809 182.322C319.087 181.885 319.525 181.575 320.03 181.459C320.23 181.426 320.434 181.426 320.633 181.459V181.472ZM320.83 180.449C320.509 180.389 320.18 180.389 319.859 180.449C319.084 180.607 318.403 181.066 317.966 181.725C317.528 182.384 317.369 183.189 317.524 183.965C317.622 184.583 317.905 185.157 318.336 185.612C318.767 186.066 319.325 186.379 319.938 186.509C320.255 186.562 320.579 186.562 320.896 186.509C321.672 186.348 322.353 185.887 322.79 185.226C323.228 184.565 323.386 183.758 323.231 182.981C323.134 182.364 322.853 181.791 322.425 181.337C321.996 180.883 321.44 180.569 320.83 180.436V180.449Z" fill="#191F39"/>
<path d="M317.839 193.133C317.874 193.533 317.991 193.921 318.184 194.273C318.376 194.625 318.64 194.933 318.958 195.178C319.276 195.423 319.641 195.599 320.031 195.696C320.42 195.792 320.825 195.807 321.221 195.738C321.616 195.67 321.993 195.52 322.328 195.299C322.663 195.077 322.947 194.789 323.165 194.451C323.382 194.114 323.527 193.735 323.59 193.339C323.654 192.943 323.634 192.538 323.533 192.15C323.481 191.761 323.353 191.387 323.156 191.048C322.959 190.71 322.696 190.414 322.384 190.177C322.072 189.94 321.716 189.768 321.336 189.67C320.957 189.572 320.562 189.55 320.174 189.605C319.398 189.766 318.717 190.227 318.28 190.888C317.842 191.549 317.684 192.356 317.839 193.133Z" fill="white"/>
<path d="M320.948 190.628C321.353 190.718 321.721 190.929 322.002 191.234C322.284 191.539 322.465 191.922 322.522 192.333C322.632 192.838 322.537 193.365 322.26 193.8C321.982 194.235 321.543 194.542 321.04 194.655C320.841 194.694 320.636 194.694 320.436 194.655C320.031 194.565 319.663 194.354 319.382 194.049C319.101 193.744 318.919 193.361 318.862 192.95C318.753 192.445 318.847 191.918 319.125 191.483C319.402 191.048 319.841 190.741 320.345 190.628C320.544 190.589 320.749 190.589 320.948 190.628ZM321.132 189.618C320.815 189.559 320.491 189.559 320.174 189.618C319.398 189.779 318.717 190.241 318.28 190.901C317.842 191.562 317.684 192.369 317.839 193.146C317.934 193.765 318.216 194.339 318.648 194.792C319.079 195.244 319.64 195.554 320.253 195.678C320.569 195.737 320.894 195.737 321.21 195.678C321.986 195.517 322.666 195.055 323.101 194.394C323.536 193.732 323.691 192.925 323.533 192.15C323.44 191.532 323.16 190.959 322.731 190.506C322.302 190.053 321.743 189.743 321.132 189.618Z" fill="#191F39"/>
<path d="M283.716 206.709C281.381 212.048 281.092 209.333 276.618 223.289C276.54 223.709 276.474 224.115 276.408 224.601C275.516 226.411 274.572 228.378 273.575 230.477C273.457 230.67 273.364 230.877 273.299 231.094C267.71 242.899 260.81 258.639 255.024 272.189C247.651 287.024 240.226 302.122 236.539 314.452C228.668 340.777 279.951 378.646 291.312 331.504C297.097 307.513 298.606 261.59 299 240.879C300.117 239.27 301.126 237.587 302.017 235.842C302.017 235.842 314.494 224.037 320.174 220.102C325.855 216.167 323.336 210.92 321.486 206.473C319.636 202.027 320.778 200.177 316.684 196.911C314.11 194.745 312.019 192.064 310.545 189.041C316.068 186.168 285.277 203.142 283.716 206.709Z" fill="#F4A3A2"/>
<path d="M310.794 187.637C310.794 187.637 305.363 187.755 301.781 188.083C298.2 188.411 296.009 189.579 292.886 194.76C289.764 199.941 280.056 207.313 280.502 213.255C280.948 219.197 282.784 238.898 299.236 239.58C315.687 240.262 336.573 223.446 326.603 219.905C326.603 219.905 335.327 214.068 326.603 208.572C326.603 208.572 332.677 198.655 322.85 197.134C322.89 197.108 329.686 183.138 310.794 187.637Z" fill="#F4A3A2"/>
<path d="M322.89 197.108C320.654 197.133 318.429 197.428 316.265 197.987C314.081 198.489 311.97 199.265 309.98 200.295C312.217 200.281 314.443 199.986 316.606 199.416C318.786 198.904 320.896 198.129 322.89 197.108Z" fill="#D18081"/>
<path d="M326.668 208.559C323.71 208.933 320.782 209.512 317.904 210.29C315.044 211.051 312.224 211.864 309.377 212.914C310.882 212.978 312.389 212.89 313.877 212.651C315.356 212.424 316.823 212.122 318.272 211.746C321.184 211.012 324.002 209.942 326.668 208.559Z" fill="#D18081"/>
<path d="M326.668 219.931C324.687 220.666 322.877 221.492 321.014 222.24C320.095 222.646 319.164 223.001 318.233 223.381C317.301 223.761 316.343 224.115 315.373 224.588C317.492 224.793 319.629 224.45 321.578 223.591C322.554 223.192 323.482 222.687 324.346 222.082C325.232 221.496 326.016 220.77 326.668 219.931Z" fill="#D18081"/>
</g>
<path d="M534.726 279.167L534.608 279.246L528.704 269.08H540.21V269.684C540.196 271.604 539.683 273.488 538.721 275.15C537.76 276.813 536.383 278.197 534.726 279.167Z" fill="#EE7225"/>
<defs>
<linearGradient id="paint0_linear_3291_839" x1="184.587" y1="369.608" x2="287.98" y2="369.608" gradientUnits="userSpaceOnUse">
<stop stop-color="#5DBCA3"/>
<stop offset="1" stop-color="#008DC7"/>
</linearGradient>
<linearGradient id="paint1_linear_3291_839" x1="137.07" y1="240.774" x2="534.463" y2="240.774" gradientUnits="userSpaceOnUse">
<stop stop-color="#5DBCA3"/>
<stop offset="1" stop-color="#008DC7"/>
</linearGradient>
</defs>
</svg>
