<?xml version="1.0" encoding="utf-8"?>
<!-- Generator: Adobe Illustrator 24.0.0, SVG Export Plug-In . SVG Version: 6.00 Build 0)  -->
<svg version="1.1" id="Capa_1" xmlns="http://www.w3.org/2000/svg" xmlns:xlink="http://www.w3.org/1999/xlink" x="0px" y="0px"
	 viewBox="0 0 1600 706" style="enable-background:new 0 0 1600 706;" xml:space="preserve">
<style type="text/css">
	.st0{fill:#626262;}
	.st1{fill:url(#SVGID_1_);}
	.st2{fill:url(#SVGID_2_);}
	.st3{fill:url(#SVGID_3_);}
	.st4{fill:url(#SVGID_4_);}
	.st5{fill:url(#SVGID_5_);}
	.st6{fill:url(#SVGID_6_);}
	.st7{fill:url(#SVGID_7_);}
	.st8{fill:#00E3B4;}
	.st9{fill:#FFFFFF;}
</style>
<path class="st0" d="M-1184.77-454.99c0-13.11,0-26.07,0-39.19c2.26,0,4.42-0.14,6.54,0.02c8.72,0.67,17.36,1.86,25.82,4.18
	c11.46,3.15,22.03,8.04,30.67,16.4c6.69,6.48,11.24,14.32,13.62,23.35c1.45,5.48,2.48,11.01,1.99,16.69
	c-2.17,0.61-51.66,0.81-55.81,0.23c-0.54-2.35-1-4.77-1.67-7.13c-2.11-7.46-7.38-11.5-14.67-13.26
	C-1180.38-454.18-1182.52-454.54-1184.77-454.99z"/>
<linearGradient id="SVGID_1_" gradientUnits="userSpaceOnUse" x1="-1401.8094" y1="-561" x2="-1401.8094" y2="-312.053">
	<stop  offset="0" style="stop-color:#00E3B4"/>
	<stop  offset="1" style="stop-color:#008DC6"/>
</linearGradient>
<path class="st1" d="M-1385.27-561c1.86,0.19,3.72,0.45,5.59,0.57c16.44,1.06,32.59,3.61,48.04,9.6c6.05,2.35,11.81,5.26,16.97,9.22
	c2.04,1.57,4.02,3.27,5.81,5.12c7.84,8.15,9.58,20.53,4.44,30.58c-2.7,5.28-7.13,8.16-12.86,9.08c-2.76,0.44-5.36-0.21-7.51-2.11
	c-11.1-9.79-24.41-14.65-38.69-17.31c-12.87-2.39-25.88-3.04-38.92-2.31c-4.53,0.25-9.1,1.09-13.49,2.24
	c-14.88,3.91-23.89,13.7-27.16,28.59c-1.1,5.01-1.74,10.22-1.78,15.34c-0.18,23.84-0.1,47.68-0.06,71.52
	c0.01,5.78,0.73,11.48,2.2,17.09c3.91,14.82,13.38,24.05,28.19,27.71c4.22,1.04,8.61,1.71,12.95,1.9c14.24,0.62,28.44,0.14,42.43-3
	c12.63-2.84,24.07-8.06,33.72-16.89c3.49-3.2,7.5-3.8,11.86-1.72c2.81,1.34,5.41,2.97,7.52,5.28c3.95,4.33,5.44,9.26,4.12,15.11
	c-2.11,9.34-7.24,16.66-14.58,22.57c-8.18,6.59-17.61,10.73-27.55,13.8c-12.8,3.94-25.96,5.84-39.3,6.6
	c-10.64,0.61-21.28,0.47-31.89-0.64c-18.48-1.92-36.24-6.28-52.15-16.33c-18.56-11.73-29.32-28.65-33.1-50.14
	c-1.19-6.77-1.64-13.6-1.64-20.46c-0.02-24.74-0.06-49.47,0.02-74.21c0.04-12.09,1.54-23.97,6.07-35.31
	c7.34-18.38,20.61-31.07,38.27-39.45c11.41-5.41,23.51-8.54,35.98-10.22c4.82-0.65,9.69-0.9,14.54-1.36
	c0.77-0.07,1.53-0.31,2.29-0.47C-1398.4-561-1391.83-561-1385.27-561z"/>
<linearGradient id="SVGID_2_" gradientUnits="userSpaceOnUse" x1="-193.7436" y1="-494.372" x2="-193.7436" y2="-307.6396">
	<stop  offset="0" style="stop-color:#00E3B4"/>
	<stop  offset="1" style="stop-color:#008DC6"/>
</linearGradient>
<path class="st2" d="M-115.04-307.64c-14.59,0-29.17,0-44.09,0c0-3.14,0-5.97,0-9.07c-2.31,0.3-4.25,0.54-6.19,0.81
	c-7.38,1.06-14.72,2.41-22.13,3.13c-17.6,1.7-34.95,0.46-51.72-5.65c-4.69-1.71-9.1-3.99-13.19-6.84
	c-11.84-8.25-18.06-19.75-19.66-33.93c-0.86-7.69-0.45-15.28,1.85-22.69c2.91-9.36,8.72-16.62,16.62-22.29
	c7.67-5.51,16.23-9.26,25.21-11.93c10.08-3,20.32-5.5,30.43-8.42c5.52-1.59,10.98-3.45,16.37-5.46c3.45-1.29,6.55-3.29,9.2-5.94
	c1.24-1.24,1.65-2.53,1.34-4.28c-0.81-4.63-3.39-7.97-7.29-10.39c-4.33-2.69-9.2-3.78-14.18-4.12c-10.58-0.73-21.14-0.18-31.31,2.91
	c-5.27,1.6-10.32,4.14-15.22,6.72c-5.33,2.81-10.73,3.88-16.67,2.77c-7.83-1.45-12.77-7.56-11.82-15.83
	c0.95-8.28,4.86-14.79,11.09-20.06c6.57-5.56,14.32-8.86,22.49-11.25c11.33-3.3,22.93-4.8,34.72-4.91c14.58-0.13,29,1.07,43.01,5.44
	c9.01,2.81,17.38,6.86,24.45,13.23c9.91,8.94,15.24,20.14,16.17,33.44c0.08,1.16,0.35,2.31,0.53,3.46
	C-115.04-395.07-115.04-351.36-115.04-307.64z M-170.46-353.08c0-11.4,0.02-22.51-0.01-33.61c-0.01-2.27-1.39-3.62-3.37-4.45
	c-1.74-0.73-3.49-0.54-5.25-0.02c-6.94,2.07-13.94,3.96-20.81,6.24c-3.46,1.14-6.81,2.75-9.99,4.54c-3.21,1.81-5.33,4.67-6.29,8.33
	c-2.54,9.7,2.82,18.96,12.51,21.41c5.37,1.36,10.82,1.28,16.29,0.72C-181.73-350.48-176.17-351.45-170.46-353.08z"/>
<linearGradient id="SVGID_3_" gradientUnits="userSpaceOnUse" x1="-947.0258" y1="-494.4586" x2="-947.0258" y2="-313.564">
	<stop  offset="0" style="stop-color:#00E3B4"/>
	<stop  offset="1" style="stop-color:#008DC6"/>
</linearGradient>
<path class="st3" d="M-919.23-313.56c-3.04-0.22-5.7-0.37-8.34-0.62c-9.92-0.93-19.71-2.55-29.12-5.97
	c-4.22-1.54-8.24-3.48-11.76-6.33c-4.44-3.59-6.7-8.11-6.69-13.95c0.08-29.61,0.05-59.21,0.01-88.82c0-2.67-0.11-5.38-0.57-8
	c-1.68-9.6-7.53-15.31-17.1-16.98c-6.05-1.05-12.13-0.86-18.13,0.06c-8.41,1.29-14.89,9.17-14.89,17.65
	c-0.01,39.54,0,79.08,0,118.63c0,1.28,0,2.56,0,3.97c-0.62,0.11-1.09,0.29-1.54,0.27c-11.56-0.44-23-1.72-34.06-5.33
	c-4.36-1.42-8.53-3.28-12.26-6.03c-2.43-1.79-4.52-3.9-5.95-6.58c-1.09-2.04-1.72-4.18-1.72-6.54c0.03-28.61-0.29-57.23,0.13-85.84
	c0.26-17.6,7.37-32.72,19.44-45.51c8.05-8.53,18.14-13.77,28.97-17.74c13.86-5.07,28.1-7.9,42.95-7.05
	c16.1,0.93,31.4,4.74,45.64,12.44c0.52,0.28,1.05,0.54,1.71,0.87c5.51-3.14,11.32-5.69,17.42-7.56c19.82-6.07,39.97-7.72,60.41-3.87
	c11.18,2.11,21.53,6.35,30.55,13.44c13.11,10.31,19.82,24.02,21.28,40.44c0.23,2.57,0.24,5.16,0.24,7.74
	c0.01,37.75,0.01,75.51,0.01,113.26c0,1.17,0,2.35,0,3.69c-1.03,0.06-1.8,0.19-2.56,0.14c-10.24-0.62-20.42-1.72-30.27-4.74
	c-3.59-1.1-7.11-2.54-10.52-4.13c-2.14-1-4.13-2.4-5.97-3.89c-4.34-3.51-6.48-8.03-6.46-13.75c0.08-28.41,0.07-56.83-0.01-85.24
	c-0.01-3.55-0.31-7.16-0.99-10.65c-2.77-14.09-12.64-19.74-25.97-19.19c-5.02,0.21-9.83,1.49-14.17,4.14
	c-6.33,3.85-9.75,9.28-9.73,16.92c0.08,38.85,0.04,77.69,0.04,116.54C-919.23-316.41-919.23-315.14-919.23-313.56z"/>
<linearGradient id="SVGID_4_" gradientUnits="userSpaceOnUse" x1="-703.576" y1="-493.9389" x2="-703.576" y2="-214.9841">
	<stop  offset="0" style="stop-color:#00E3B4"/>
	<stop  offset="1" style="stop-color:#008DC6"/>
</linearGradient>
<path class="st4" d="M-728.68-320.83c0,35.33,0,70.35,0,105.47c-0.67,0.17-1.13,0.39-1.58,0.38c-11.08-0.31-22.01-1.54-32.59-5.04
	c-4.17-1.38-8.13-3.2-11.75-5.72c-6.69-4.66-10.05-10.96-10.01-19.2c0.1-20.66,0.03-41.33,0.03-61.99
	c0-43.81,0.02-87.63-0.02-131.44c-0.01-17.29-0.16-34.57-0.25-51.86c-0.01-1.07,0-2.15,0-3.44c1.19-0.08,2.14-0.19,3.1-0.19
	c25.37-0.01,50.74-0.18,76.1,0.05c17.57,0.16,34.57,3.53,50.64,10.88c5.27,2.41,10.15,5.44,14.67,9.07
	c9.96,7.99,15.56,18.41,17.27,30.95c0.48,3.53,0.7,7.12,0.71,10.69c0.07,19.27-0.01,38.55,0.04,57.82
	c0.07,23.35-10.55,40.43-30.53,51.95c-10.78,6.21-22.57,9.12-34.93,10.13c-13.66,1.11-26.48-1.72-38.73-7.59
	C-727.1-320.21-727.73-320.44-728.68-320.83z M-728.72-454.33c0,1.27,0,2.25,0,3.23c0,25.02,0.05,50.04-0.03,75.05
	c-0.02,7.17,2.76,12.94,8.17,17.43c7.32,6.08,15.85,8.51,25.29,7.43c5.08-0.58,9.3-3,12.11-7.31c1.45-2.21,2.57-4.7,3.43-7.21
	c1.42-4.16,1.71-8.55,1.72-12.93c0.02-16.18,0.03-32.36-0.02-48.55c-0.01-2.87-0.19-5.76-0.54-8.61
	c-1.38-11.09-7.37-17.51-18.35-19.82c-7.7-1.62-15.43-1.11-23.14-0.15C-722.92-455.41-725.72-454.83-728.72-454.33z"/>
<linearGradient id="SVGID_5_" gradientUnits="userSpaceOnUse" x1="-525.233" y1="-494.4288" x2="-525.233" y2="-307.7671">
	<stop  offset="0" style="stop-color:#00E3B4"/>
	<stop  offset="1" style="stop-color:#008DC6"/>
</linearGradient>
<path class="st5" d="M-446.43-307.77c-14.88,0-29.36,0-44.17,0c0-2.96,0-5.79,0-9c-2.7,0.39-5.04,0.7-7.36,1.07
	c-9.62,1.51-19.22,3.26-28.98,3.53c-14.91,0.41-29.59-0.95-43.7-6.19c-4.68-1.74-9.1-3.97-13.21-6.82
	c-9.45-6.56-15.67-15.37-18.42-26.56c-2.02-8.21-2.33-16.5-0.81-24.82c2.06-11.28,7.97-20.18,17.12-27.01
	c7.83-5.84,16.65-9.72,25.91-12.5c10.08-3.03,20.31-5.52,30.43-8.43c5.53-1.59,10.98-3.45,16.38-5.44c3.36-1.24,6.35-3.22,9.03-5.68
	c1.69-1.55,2.02-3.23,1.5-5.35c-1.16-4.78-4.11-8.05-8.35-10.31c-4.02-2.14-8.4-3.12-12.87-3.43c-10.48-0.74-20.95-0.24-31.02,2.8
	c-5.46,1.65-10.68,4.27-15.78,6.9c-5.26,2.71-10.56,3.77-16.4,2.71c-7.76-1.41-12.67-7.2-12.02-15.13
	c0.56-6.93,3.33-12.81,8.04-17.83c5.21-5.56,11.71-9.13,18.73-11.86c9.04-3.53,18.47-5.45,28.09-6.45
	c13.92-1.45,27.8-1.05,41.62,1.16c9.37,1.5,18.44,4,26.93,8.34c17.99,9.21,27.63,23.91,28.92,44.06c0.15,2.38,0.21,4.76,0.22,7.14
	c0.02,15.59-0.01,31.19,0.01,46.78c0.04,24.83,0.11,49.65,0.17,74.48C-446.42-310.43-446.43-309.25-446.43-307.77z M-501.94-353.11
	c0-0.86,0-1.45,0-2.04c0-10.13,0.02-20.26-0.01-30.39c-0.01-4.04-2.68-6.43-6.7-6.05c-0.59,0.06-1.18,0.19-1.75,0.36
	c-7.42,2.21-14.89,4.27-22.23,6.72c-3.35,1.12-6.55,2.84-9.6,4.65c-2.81,1.67-4.62,4.35-5.47,7.55
	c-2.72,10.15,2.86,19.42,13.09,21.8c5,1.16,10.04,1.1,15.12,0.63C-513.64-350.42-507.89-351.43-501.94-353.11z"/>
<linearGradient id="SVGID_6_" gradientUnits="userSpaceOnUse" x1="-354.2791" y1="-494.4869" x2="-354.2791" y2="-313.6478">
	<stop  offset="0" style="stop-color:#00E3B4"/>
	<stop  offset="1" style="stop-color:#008DC6"/>
</linearGradient>
<path class="st6" d="M-364-451.09c0,45.6,0,91.28,0,137.09c-0.62,0.15-1.08,0.37-1.52,0.35c-12.16-0.46-24.22-1.7-35.73-5.93
	c-3.51-1.29-6.94-3.02-10.09-5.04c-5.85-3.75-8.65-9.2-8.64-16.31c0.07-49.97,0.03-99.95,0.02-149.92c0-1.07,0-2.14,0-3.44
	c1.26-0.07,2.22-0.17,3.19-0.17c29.55-0.01,59.09-0.05,88.64,0.02c8.17,0.02,16.05,1.83,23.21,5.78
	c10.41,5.74,15.65,14.84,16.29,26.66c0.39,7.21-1.11,14.03-4.25,20.48c-2.04,4.19-4.99,7.46-9.85,8.3
	c-4.07,0.71-7.76-0.09-10.01-4.38c-3.81-7.29-10.37-11.37-18.07-13.61c-10.67-3.1-21.43-2.58-32.17-0.34
	C-363.28-451.5-363.53-451.31-364-451.09z"/>
<linearGradient id="SVGID_7_" gradientUnits="userSpaceOnUse" x1="-1192.2452" y1="-411.7939" x2="-1192.2452" y2="-312.0274">
	<stop  offset="0" style="stop-color:#00E3B4"/>
	<stop  offset="1" style="stop-color:#008DC6"/>
</linearGradient>
<path class="st7" d="M-1161.7-411.79c18.63,0,36.98,0,55.53,0c0.06,1.11,0.15,2.08,0.15,3.05c0.01,11.92,0.04,23.83-0.01,35.75
	c-0.03,6.69-1,13.26-3.13,19.62c-4.26,12.74-12.5,22.19-24.05,28.85c-9.59,5.54-20.05,8.59-30.92,10.32
	c-17.5,2.8-35.06,2.8-52.6,0.51c-10.49-1.37-20.68-3.95-30.25-8.61c-11.13-5.42-20.04-13.17-25.64-24.4
	c-3.46-6.95-5.49-14.35-5.67-22.05c-0.32-14-0.17-28-0.2-42c0-0.28,0.12-0.56,0.23-1.03c18.34,0,36.68,0,55.45,0
	c0,1.08,0,2.13,0,3.18c0,9.63-0.06,19.27,0.03,28.9c0.03,3.27,0.26,6.56,0.73,9.79c1.41,9.78,7.09,15.66,16.76,17.69
	c8.48,1.78,17.01,1.89,25.47,0.2c11.2-2.24,16.66-8.73,17.71-20.48c0.19-2.17,0.23-4.36,0.24-6.55c0.03-9.83,0.01-19.66,0.02-29.5
	C-1161.84-409.6-1161.75-410.66-1161.7-411.79z"/>
<path class="st8" d="M-1202.28-454.74c-5.4,1.15-10.69,2.5-14.65,6.69c-3.89,4.11-4.89,9.38-5.73,14.81c-18.62,0-37.07,0-55.64,0
	c-0.46-3.85,0.14-7.48,0.76-11.07c3.43-19.78,15.07-32.99,33.12-41.01c9.34-4.15,19.2-6.41,29.29-7.7c3.25-0.42,6.52-0.69,9.79-0.98
	c0.96-0.09,1.93-0.01,3.05-0.01C-1202.28-480.89-1202.28-467.92-1202.28-454.74z"/>
<path class="st0" d="M-1197.86-426.88c0-3.67,0.02-7.35-0.01-11.02c-0.01-1.81,0.6-3.31,2.06-4.4c2.55-1.89,6.33-0.85,7.43,2.14
	c0.4,1.08,0.48,2.33,0.48,3.5c0.04,6.55,0.02,13.11,0.02,19.66c0,0.6,0.02,1.2-0.05,1.79c-0.37,2.95-2.44,4.84-5.15,4.74
	c-2.71-0.1-4.67-2.1-4.76-5.09c-0.09-2.98-0.03-5.96-0.03-8.94C-1197.87-425.29-1197.87-426.08-1197.86-426.88
	C-1197.86-426.88-1197.86-426.88-1197.86-426.88z"/>
<path class="st9" d="M-1489.77-972.99c0-13.11,0-26.07,0-39.19c2.26,0,4.42-0.14,6.54,0.02c8.72,0.67,17.36,1.86,25.82,4.18
	c11.46,3.15,22.03,8.04,30.67,16.4c6.69,6.48,11.24,14.32,13.62,23.35c1.45,5.48,2.48,11.01,1.99,16.69
	c-2.17,0.61-51.66,0.81-55.81,0.23c-0.54-2.35-1-4.77-1.67-7.13c-2.11-7.46-7.38-11.5-14.67-13.26
	C-1485.38-972.18-1487.52-972.54-1489.77-972.99z"/>
<path class="st9" d="M-1466.7-929.79c18.63,0,36.98,0,55.53,0c0.06,1.11,0.15,2.08,0.15,3.05c0.01,11.92,0.04,23.83-0.01,35.75
	c-0.03,6.69-1,13.26-3.13,19.62c-4.26,12.74-12.5,22.19-24.05,28.85c-9.59,5.54-20.05,8.59-30.92,10.32
	c-17.5,2.8-35.06,2.8-52.6,0.51c-10.49-1.37-20.68-3.95-30.25-8.61c-11.13-5.42-20.04-13.17-25.64-24.4
	c-3.46-6.95-5.49-14.35-5.67-22.05c-0.32-14-0.17-28-0.2-42c0-0.28,0.12-0.56,0.23-1.03c18.34,0,36.68,0,55.45,0
	c0,1.08,0,2.13,0,3.18c0,9.63-0.06,19.27,0.03,28.9c0.03,3.27,0.26,6.56,0.73,9.79c1.41,9.78,7.09,15.66,16.76,17.69
	c8.48,1.78,17.01,1.89,25.47,0.2c11.2-2.24,16.66-8.73,17.71-20.48c0.19-2.17,0.23-4.36,0.24-6.55c0.03-9.83,0.01-19.66,0.02-29.5
	C-1466.84-927.6-1466.75-928.66-1466.7-929.79z"/>
<path class="st9" d="M-1507.28-972.74c-5.4,1.15-10.69,2.5-14.65,6.69c-3.89,4.11-4.89,9.38-5.73,14.81c-18.62,0-37.07,0-55.64,0
	c-0.46-3.85,0.14-7.48,0.76-11.07c3.43-19.78,15.07-32.99,33.12-41.01c9.34-4.15,19.2-6.41,29.29-7.7c3.25-0.42,6.52-0.69,9.79-0.98
	c0.96-0.09,1.93-0.01,3.05-0.01C-1507.28-998.89-1507.28-985.92-1507.28-972.74z"/>
<path class="st9" d="M-1502.86-944.88c0-3.67,0.02-7.35-0.01-11.02c-0.01-1.81,0.6-3.31,2.06-4.4c2.55-1.89,6.33-0.85,7.43,2.14
	c0.4,1.08,0.48,2.33,0.48,3.5c0.04,6.55,0.02,13.11,0.02,19.66c0,0.6,0.02,1.2-0.05,1.79c-0.37,2.95-2.44,4.84-5.15,4.74
	c-2.71-0.1-4.67-2.1-4.76-5.09c-0.09-2.98-0.03-5.96-0.03-8.94C-1502.87-943.29-1502.87-944.08-1502.86-944.88
	C-1502.86-944.88-1502.86-944.88-1502.86-944.88z"/>
<g>
	<path class="st0" d="M-692.01-232.14l1.92-3.17c4,4.17,11.42,7.34,19.26,7.34c11.67,0,16.84-5.09,16.84-11.42
		c0-17.51-36.43-7-36.43-28.51c0-8.25,6.34-15.51,20.68-15.51c6.42,0,13.09,2,17.59,5.25l-1.58,3.42
		c-4.83-3.33-10.75-4.92-16.01-4.92c-11.34,0-16.42,5.25-16.42,11.67c0,17.51,36.43,7.17,36.43,28.35c0,8.25-6.59,15.42-21.01,15.42
		C-679.42-224.22-687.75-227.47-692.01-232.14z"/>
	<path class="st0" d="M-552.19-228.47v3.83h-40.27V-283h39.02v3.84h-34.77v23.01h31.1v3.75h-31.1v23.93H-552.19z"/>
	<path class="st0" d="M-452.15-253.57h4.09v21.84c-5.25,5-12.84,7.5-20.84,7.5c-17.59,0-30.51-12.59-30.51-29.6
		c0-17.01,12.92-29.6,30.6-29.6c8.42,0,15.84,2.67,21.01,8l-2.67,2.83c-5.09-5-11.17-6.92-18.26-6.92
		c-15.17,0-26.43,11.01-26.43,25.68c0,14.59,11.25,25.68,26.43,25.68c6.17,0,11.84-1.5,16.59-5.34V-253.57z"/>
	<path class="st0" d="M-387.04-249.4V-283h4.25v33.43c0,14.59,7,21.43,19.18,21.43s19.09-6.84,19.09-21.43V-283h4.25v33.6
		c0,16.67-8.92,25.18-23.43,25.18C-378.2-224.22-387.04-232.72-387.04-249.4z"/>
	<path class="st0" d="M-237.05-224.64l-13.92-19.51c-1.83,0.25-3.67,0.42-5.67,0.42h-16.67v19.09h-4.25V-283h20.93
		c14.67,0,23.51,7.34,23.51,19.68c0,9.25-5,15.67-13.67,18.26l14.59,20.43H-237.05z M-256.65-247.48c12.51,0,19.18-5.84,19.18-15.84
		c0-10.09-6.67-15.84-19.18-15.84h-16.67v31.68H-256.65z"/>
	<path class="st0" d="M-180.28-253.82c0-16.92,12.92-29.6,30.35-29.6c17.34,0,30.35,12.59,30.35,29.6c0,17.01-13.01,29.6-30.35,29.6
		C-167.36-224.22-180.28-236.89-180.28-253.82z M-123.92-253.82c0-14.76-11.17-25.68-26.01-25.68c-14.92,0-26.1,10.92-26.1,25.68
		c0,14.76,11.17,25.68,26.1,25.68C-135.09-228.14-123.92-239.06-123.92-253.82z"/>
</g>
<g>
	<g>
		<path d="M424.11-437.95c0-13.11,0-26.07,0-39.19c2.26,0,4.42-0.14,6.54,0.02c8.72,0.67,17.36,1.86,25.82,4.18
			c11.46,3.15,22.03,8.04,30.67,16.4c6.69,6.48,11.24,14.32,13.62,23.35c1.45,5.48,2.48,11.01,1.99,16.69
			c-2.17,0.61-51.66,0.81-55.81,0.23c-0.54-2.35-1-4.77-1.67-7.13c-2.11-7.46-7.38-11.5-14.67-13.26
			C428.5-437.14,426.35-437.5,424.11-437.95z"/>
	</g>
	<g>
		<path d="M223.61-543.96c1.86,0.19,3.72,0.45,5.59,0.57c16.44,1.06,32.59,3.61,48.04,9.6c6.05,2.35,11.81,5.26,16.97,9.22
			c2.04,1.57,4.02,3.27,5.81,5.12c7.84,8.15,9.58,20.53,4.44,30.58c-2.7,5.28-7.13,8.16-12.86,9.08c-2.76,0.44-5.36-0.21-7.51-2.11
			c-11.1-9.79-24.41-14.65-38.69-17.31c-12.87-2.39-25.88-3.04-38.92-2.31c-4.53,0.25-9.1,1.09-13.49,2.24
			c-14.88,3.91-23.89,13.7-27.16,28.59c-1.1,5.01-1.74,10.22-1.78,15.34c-0.18,23.84-0.1,47.68-0.06,71.52
			c0.01,5.78,0.73,11.48,2.2,17.09c3.91,14.82,13.38,24.05,28.19,27.71c4.22,1.04,8.61,1.71,12.95,1.9
			c14.24,0.62,28.44,0.14,42.43-3c12.63-2.84,24.07-8.06,33.72-16.89c3.49-3.2,7.5-3.8,11.86-1.72c2.81,1.34,5.41,2.97,7.52,5.28
			c3.95,4.33,5.44,9.26,4.12,15.11c-2.11,9.34-7.24,16.66-14.58,22.57c-8.18,6.59-17.61,10.73-27.55,13.8
			c-12.8,3.94-25.96,5.84-39.3,6.6c-10.64,0.61-21.28,0.47-31.89-0.64c-18.48-1.92-36.24-6.28-52.15-16.33
			c-18.56-11.73-29.32-28.65-33.1-50.14c-1.19-6.77-1.64-13.6-1.64-20.46c-0.02-24.74-0.06-49.47,0.02-74.21
			c0.04-12.09,1.54-23.97,6.07-35.31c7.34-18.38,20.61-31.07,38.27-39.45c11.41-5.41,23.51-8.54,35.98-10.22
			c4.82-0.65,9.69-0.9,14.54-1.36c0.77-0.07,1.53-0.31,2.29-0.47C210.48-543.96,217.05-543.96,223.61-543.96z"/>
	</g>
	<g>
		<path d="M1493.84-290.6c-14.59,0-29.17,0-44.09,0c0-3.14,0-5.97,0-9.07c-2.31,0.3-4.25,0.54-6.19,0.81
			c-7.38,1.06-14.72,2.41-22.13,3.13c-17.6,1.7-34.95,0.46-51.72-5.65c-4.69-1.71-9.1-3.99-13.19-6.84
			c-11.84-8.25-18.06-19.75-19.66-33.93c-0.86-7.69-0.45-15.28,1.85-22.69c2.91-9.36,8.72-16.62,16.62-22.29
			c7.67-5.51,16.23-9.26,25.21-11.93c10.08-3,20.32-5.51,30.43-8.42c5.52-1.59,10.98-3.45,16.37-5.46c3.45-1.29,6.55-3.29,9.2-5.94
			c1.24-1.24,1.65-2.53,1.34-4.28c-0.81-4.63-3.39-7.97-7.29-10.39c-4.33-2.69-9.2-3.78-14.18-4.12
			c-10.58-0.73-21.14-0.18-31.31,2.91c-5.27,1.6-10.32,4.14-15.22,6.72c-5.33,2.81-10.73,3.88-16.67,2.77
			c-7.83-1.45-12.77-7.56-11.82-15.83c0.95-8.28,4.86-14.79,11.09-20.06c6.57-5.56,14.32-8.86,22.49-11.25
			c11.33-3.3,22.93-4.8,34.72-4.91c14.58-0.13,29,1.07,43.01,5.44c9.01,2.81,17.38,6.86,24.45,13.23
			c9.91,8.94,15.24,20.14,16.17,33.44c0.08,1.16,0.35,2.31,0.53,3.46C1493.84-378.04,1493.84-334.32,1493.84-290.6z M1438.42-336.04
			c0-11.4,0.02-22.51-0.01-33.61c-0.01-2.27-1.39-3.62-3.37-4.45c-1.74-0.73-3.49-0.54-5.25-0.02c-6.94,2.07-13.94,3.96-20.81,6.24
			c-3.46,1.14-6.81,2.75-9.99,4.54c-3.21,1.81-5.33,4.67-6.29,8.33c-2.54,9.7,2.82,18.96,12.51,21.41
			c5.37,1.36,10.82,1.28,16.29,0.72C1427.15-333.44,1432.71-334.41,1438.42-336.04z"/>
	</g>
	<g>
		<path d="M689.65-296.53c-3.04-0.22-5.7-0.37-8.34-0.62c-9.92-0.93-19.71-2.55-29.12-5.97c-4.22-1.54-8.24-3.48-11.76-6.33
			c-4.44-3.59-6.7-8.11-6.69-13.95c0.08-29.61,0.05-59.21,0.01-88.82c0-2.67-0.11-5.38-0.57-8c-1.68-9.6-7.53-15.31-17.1-16.98
			c-6.05-1.05-12.13-0.86-18.13,0.06c-8.41,1.29-14.89,9.17-14.89,17.65c0,39.54,0,79.08,0,118.63c0,1.28,0,2.56,0,3.97
			c-0.62,0.11-1.09,0.29-1.54,0.27c-11.56-0.44-23-1.72-34.06-5.33c-4.36-1.42-8.53-3.28-12.26-6.03c-2.43-1.79-4.52-3.9-5.95-6.58
			c-1.09-2.04-1.72-4.18-1.72-6.54c0.03-28.61-0.29-57.23,0.13-85.84c0.26-17.6,7.37-32.72,19.44-45.51
			c8.05-8.53,18.14-13.77,28.97-17.74c13.86-5.07,28.1-7.9,42.95-7.05c16.1,0.93,31.4,4.74,45.64,12.44
			c0.52,0.28,1.05,0.54,1.71,0.87c5.51-3.14,11.32-5.69,17.42-7.56c19.82-6.07,39.97-7.72,60.41-3.87
			c11.18,2.11,21.53,6.35,30.55,13.44c13.11,10.31,19.82,24.02,21.28,40.44c0.23,2.57,0.24,5.16,0.24,7.74
			c0.01,37.75,0.01,75.51,0.01,113.26c0,1.17,0,2.35,0,3.69c-1.03,0.06-1.8,0.19-2.56,0.14c-10.24-0.62-20.42-1.72-30.27-4.74
			c-3.59-1.1-7.11-2.54-10.52-4.13c-2.14-1-4.13-2.4-5.97-3.89c-4.34-3.51-6.48-8.03-6.46-13.75c0.08-28.41,0.07-56.83-0.01-85.24
			c-0.01-3.55-0.31-7.16-0.99-10.65c-2.77-14.09-12.64-19.74-25.97-19.19c-5.02,0.21-9.83,1.49-14.17,4.14
			c-6.33,3.85-9.75,9.28-9.73,16.92c0.08,38.85,0.04,77.69,0.04,116.54C689.65-299.37,689.65-298.11,689.65-296.53z"/>
	</g>
	<g>
		<path d="M880.2-303.8c0,35.33,0,70.35,0,105.47c-0.67,0.17-1.13,0.39-1.58,0.38c-11.08-0.31-22.01-1.54-32.59-5.04
			c-4.17-1.38-8.13-3.2-11.75-5.72c-6.69-4.66-10.05-10.96-10.01-19.2c0.1-20.66,0.03-41.33,0.03-61.99
			c0-43.81,0.02-87.63-0.02-131.44c-0.01-17.29-0.16-34.57-0.25-51.86c-0.01-1.07,0-2.15,0-3.44c1.19-0.08,2.14-0.19,3.1-0.19
			c25.37-0.01,50.74-0.18,76.1,0.05c17.57,0.16,34.57,3.53,50.64,10.88c5.27,2.41,10.15,5.44,14.67,9.07
			c9.96,7.99,15.56,18.41,17.27,30.95c0.48,3.53,0.7,7.12,0.71,10.69c0.07,19.27-0.01,38.55,0.04,57.82
			c0.07,23.35-10.55,40.43-30.53,51.95c-10.78,6.21-22.57,9.12-34.93,10.13c-13.66,1.11-26.48-1.72-38.73-7.59
			C881.78-303.17,881.15-303.4,880.2-303.8z M880.16-437.29c0,1.27,0,2.25,0,3.23c0,25.02,0.05,50.04-0.03,75.05
			c-0.02,7.17,2.76,12.94,8.17,17.43c7.32,6.08,15.85,8.51,25.29,7.43c5.08-0.58,9.3-3,12.11-7.31c1.45-2.21,2.57-4.7,3.43-7.21
			c1.42-4.16,1.71-8.55,1.72-12.93c0.02-16.18,0.03-32.36-0.02-48.55c-0.01-2.87-0.19-5.76-0.54-8.61
			c-1.38-11.09-7.37-17.51-18.35-19.82c-7.7-1.62-15.43-1.11-23.14-0.15C885.96-438.37,883.16-437.8,880.16-437.29z"/>
	</g>
	<g>
		<path d="M1162.45-290.73c-14.88,0-29.36,0-44.17,0c0-2.96,0-5.79,0-9c-2.7,0.39-5.04,0.7-7.36,1.07
			c-9.62,1.51-19.22,3.26-28.98,3.53c-14.91,0.41-29.59-0.95-43.7-6.19c-4.68-1.74-9.1-3.97-13.21-6.82
			c-9.45-6.56-15.67-15.37-18.42-26.56c-2.02-8.21-2.33-16.5-0.81-24.82c2.06-11.28,7.97-20.18,17.12-27.01
			c7.83-5.84,16.65-9.72,25.91-12.5c10.08-3.03,20.31-5.52,30.43-8.43c5.53-1.59,10.98-3.45,16.38-5.44
			c3.36-1.24,6.35-3.22,9.03-5.68c1.69-1.55,2.02-3.23,1.5-5.35c-1.16-4.78-4.11-8.05-8.35-10.31c-4.02-2.14-8.4-3.12-12.87-3.43
			c-10.48-0.74-20.95-0.24-31.02,2.8c-5.46,1.65-10.68,4.27-15.78,6.9c-5.26,2.71-10.56,3.77-16.4,2.71
			c-7.76-1.41-12.67-7.2-12.02-15.13c0.56-6.93,3.33-12.81,8.04-17.83c5.21-5.56,11.71-9.13,18.73-11.86
			c9.04-3.53,18.47-5.45,28.09-6.45c13.92-1.45,27.8-1.05,41.62,1.16c9.37,1.5,18.44,4,26.93,8.34
			c17.99,9.21,27.63,23.91,28.92,44.06c0.15,2.38,0.21,4.76,0.22,7.14c0.02,15.59-0.01,31.19,0.01,46.78
			c0.04,24.83,0.11,49.65,0.17,74.48C1162.45-293.39,1162.45-292.21,1162.45-290.73z M1106.94-336.07c0-0.86,0-1.45,0-2.04
			c0-10.13,0.02-20.26-0.01-30.39c-0.01-4.04-2.68-6.43-6.7-6.05c-0.59,0.06-1.18,0.19-1.75,0.36c-7.42,2.21-14.89,4.27-22.23,6.72
			c-3.35,1.12-6.55,2.84-9.6,4.65c-2.81,1.67-4.62,4.35-5.47,7.55c-2.72,10.15,2.86,19.42,13.09,21.8c5,1.16,10.04,1.1,15.12,0.63
			C1095.24-333.38,1100.99-334.39,1106.94-336.07z"/>
	</g>
	<g>
		<path d="M1244.88-434.05c0,45.6,0,91.28,0,137.09c-0.62,0.15-1.08,0.37-1.52,0.35c-12.16-0.46-24.22-1.7-35.73-5.93
			c-3.51-1.29-6.94-3.02-10.09-5.04c-5.85-3.75-8.65-9.2-8.64-16.31c0.07-49.97,0.03-99.95,0.02-149.92c0-1.07,0-2.14,0-3.44
			c1.26-0.07,2.22-0.17,3.19-0.17c29.55-0.01,59.09-0.05,88.64,0.02c8.17,0.02,16.05,1.83,23.21,5.78
			c10.41,5.74,15.65,14.84,16.29,26.66c0.39,7.21-1.11,14.03-4.25,20.48c-2.04,4.19-4.99,7.46-9.85,8.3
			c-4.07,0.71-7.77-0.09-10.01-4.38c-3.81-7.29-10.37-11.37-18.07-13.61c-10.67-3.1-21.43-2.58-32.18-0.34
			C1245.6-434.46,1245.35-434.27,1244.88-434.05z"/>
	</g>
	<g>
		<path d="M447.17-394.76c18.63,0,36.98,0,55.53,0c0.06,1.11,0.15,2.08,0.15,3.05c0.01,11.92,0.04,23.83-0.01,35.75
			c-0.03,6.69-1,13.26-3.13,19.62c-4.26,12.74-12.5,22.19-24.05,28.85c-9.59,5.54-20.05,8.59-30.92,10.32
			c-17.5,2.8-35.06,2.8-52.6,0.51c-10.49-1.37-20.68-3.95-30.25-8.61c-11.13-5.42-20.04-13.17-25.64-24.4
			c-3.46-6.95-5.49-14.35-5.67-22.05c-0.32-14-0.17-28-0.2-42c0-0.28,0.12-0.56,0.23-1.03c18.34,0,36.68,0,55.45,0
			c0,1.08,0,2.13,0,3.18c0,9.63-0.06,19.27,0.03,28.9c0.03,3.27,0.26,6.56,0.73,9.79c1.41,9.78,7.09,15.66,16.76,17.69
			c8.48,1.78,17.01,1.89,25.47,0.2c11.2-2.24,16.66-8.73,17.71-20.48c0.19-2.17,0.23-4.36,0.24-6.55c0.03-9.83,0.01-19.66,0.02-29.5
			C447.04-392.56,447.12-393.62,447.17-394.76z"/>
	</g>
	<g>
		<path d="M406.6-437.7c-5.4,1.15-10.69,2.5-14.65,6.69c-3.89,4.11-4.89,9.38-5.73,14.81c-18.62,0-37.07,0-55.64,0
			c-0.46-3.85,0.14-7.48,0.76-11.07c3.43-19.78,15.07-32.99,33.12-41.01c9.34-4.15,19.2-6.41,29.29-7.7
			c3.25-0.42,6.52-0.69,9.79-0.98c0.96-0.09,1.93-0.01,3.05-0.01C406.6-463.85,406.6-450.88,406.6-437.7z"/>
	</g>
	<g>
		<path d="M411.02-409.84c0-3.67,0.02-7.35-0.01-11.02c-0.01-1.81,0.6-3.31,2.06-4.4c2.55-1.89,6.33-0.85,7.43,2.14
			c0.4,1.08,0.48,2.33,0.48,3.5c0.04,6.55,0.02,13.11,0.02,19.66c0,0.6,0.02,1.2-0.05,1.79c-0.37,2.95-2.44,4.84-5.15,4.74
			c-2.71-0.1-4.67-2.1-4.76-5.09c-0.09-2.98-0.03-5.96-0.03-8.94C411.01-408.25,411.01-409.04,411.02-409.84
			C411.01-409.84,411.02-409.84,411.02-409.84z"/>
	</g>
	<g>
		<path d="M916.87-215.1l1.92-3.17c4,4.17,11.42,7.34,19.26,7.34c11.67,0,16.84-5.09,16.84-11.42c0-17.51-36.43-7-36.43-28.51
			c0-8.25,6.34-15.51,20.68-15.51c6.42,0,13.09,2,17.59,5.25l-1.58,3.42c-4.83-3.33-10.75-4.92-16.01-4.92
			c-11.34,0-16.42,5.25-16.42,11.67c0,17.51,36.43,7.17,36.43,28.35c0,8.25-6.59,15.42-21.01,15.42
			C929.46-207.18,921.12-210.43,916.87-215.1z"/>
		<path d="M1056.69-211.43v3.83h-40.27v-58.36h39.02v3.84h-34.77v23.01h31.1v3.75h-31.1v23.93H1056.69z"/>
		<path d="M1156.73-236.53h4.09v21.84c-5.25,5-12.84,7.5-20.84,7.5c-17.59,0-30.51-12.59-30.51-29.6c0-17.01,12.92-29.6,30.6-29.6
			c8.42,0,15.84,2.67,21.01,8l-2.67,2.83c-5.09-5-11.17-6.92-18.26-6.92c-15.17,0-26.43,11.01-26.43,25.68
			c0,14.59,11.25,25.68,26.43,25.68c6.17,0,11.84-1.5,16.59-5.34V-236.53z"/>
		<path d="M1221.84-232.36v-33.6h4.25v33.43c0,14.59,7,21.43,19.18,21.43s19.09-6.84,19.09-21.43v-33.43h4.25v33.6
			c0,16.67-8.92,25.18-23.43,25.18C1230.68-207.18,1221.84-215.68,1221.84-232.36z"/>
		<path d="M1371.83-207.6l-13.92-19.51c-1.83,0.25-3.67,0.42-5.67,0.42h-16.67v19.09h-4.25v-58.36h20.93
			c14.67,0,23.51,7.34,23.51,19.68c0,9.25-5,15.67-13.67,18.26l14.59,20.43H1371.83z M1352.23-230.44
			c12.51,0,19.18-5.84,19.18-15.84c0-10.09-6.67-15.84-19.18-15.84h-16.67v31.68H1352.23z"/>
		<path d="M1428.6-236.78c0-16.92,12.92-29.6,30.35-29.6c17.34,0,30.35,12.59,30.35,29.6c0,17.01-13.01,29.6-30.35,29.6
			C1441.52-207.18,1428.6-219.85,1428.6-236.78z M1484.96-236.78c0-14.76-11.17-25.68-26.01-25.68c-14.92,0-26.1,10.92-26.1,25.68
			c0,14.76,11.17,25.68,26.1,25.68C1473.79-211.1,1484.96-222.02,1484.96-236.78z"/>
	</g>
</g>
<g>
	<g>
		<path class="st0" d="M-1211.89,261.05c0-13.11,0-26.07,0-39.19c2.26,0,4.42-0.14,6.54,0.02c8.72,0.67,17.36,1.86,25.82,4.18
			c11.46,3.15,22.03,8.04,30.67,16.4c6.69,6.48,11.24,14.32,13.62,23.35c1.45,5.48,2.48,11.01,1.99,16.69
			c-2.17,0.61-51.66,0.81-55.81,0.23c-0.54-2.35-1-4.77-1.67-7.13c-2.11-7.46-7.38-11.5-14.67-13.26
			C-1207.5,261.86-1209.65,261.5-1211.89,261.05z"/>
	</g>
	<g>
		<path class="st0" d="M-1412.39,155.04c1.86,0.19,3.72,0.45,5.59,0.57c16.44,1.06,32.59,3.61,48.04,9.6
			c6.05,2.35,11.81,5.26,16.97,9.22c2.04,1.57,4.02,3.27,5.81,5.12c7.84,8.15,9.58,20.53,4.44,30.58c-2.7,5.28-7.13,8.16-12.86,9.08
			c-2.76,0.44-5.36-0.21-7.51-2.11c-11.1-9.79-24.41-14.65-38.69-17.31c-12.87-2.39-25.88-3.04-38.92-2.31
			c-4.53,0.25-9.1,1.09-13.49,2.24c-14.88,3.91-23.89,13.7-27.16,28.59c-1.1,5.01-1.74,10.22-1.78,15.34
			c-0.18,23.84-0.1,47.68-0.06,71.52c0.01,5.78,0.73,11.48,2.2,17.09c3.91,14.82,13.38,24.05,28.19,27.71
			c4.22,1.04,8.61,1.71,12.95,1.9c14.24,0.62,28.44,0.14,42.43-3c12.63-2.84,24.07-8.06,33.72-16.89c3.49-3.2,7.5-3.8,11.86-1.72
			c2.81,1.34,5.41,2.97,7.52,5.28c3.95,4.33,5.44,9.26,4.12,15.11c-2.11,9.34-7.24,16.66-14.58,22.57
			c-8.18,6.59-17.61,10.73-27.55,13.8c-12.8,3.94-25.96,5.84-39.3,6.6c-10.64,0.61-21.28,0.47-31.89-0.64
			c-18.48-1.92-36.24-6.28-52.15-16.33c-18.56-11.73-29.32-28.65-33.1-50.14c-1.19-6.77-1.64-13.6-1.64-20.46
			c-0.02-24.74-0.06-49.47,0.02-74.21c0.04-12.09,1.54-23.97,6.07-35.31c7.34-18.38,20.61-31.07,38.27-39.45
			c11.41-5.41,23.51-8.54,35.98-10.22c4.82-0.65,9.69-0.9,14.54-1.36c0.77-0.07,1.53-0.31,2.29-0.47
			C-1425.52,155.04-1418.95,155.04-1412.39,155.04z"/>
	</g>
	<g>
		<path class="st0" d="M-142.16,408.4c-14.59,0-29.17,0-44.09,0c0-3.14,0-5.97,0-9.07c-2.31,0.3-4.25,0.54-6.19,0.81
			c-7.38,1.06-14.72,2.41-22.13,3.13c-17.6,1.7-34.95,0.46-51.72-5.65c-4.69-1.71-9.1-3.99-13.19-6.84
			c-11.84-8.25-18.06-19.75-19.66-33.93c-0.86-7.69-0.45-15.28,1.85-22.69c2.91-9.36,8.72-16.62,16.62-22.29
			c7.67-5.51,16.23-9.26,25.21-11.93c10.08-3,20.32-5.5,30.43-8.42c5.52-1.59,10.98-3.45,16.37-5.46c3.45-1.29,6.55-3.29,9.2-5.94
			c1.24-1.24,1.65-2.53,1.34-4.28c-0.81-4.63-3.39-7.97-7.29-10.39c-4.33-2.69-9.2-3.78-14.18-4.12
			c-10.58-0.73-21.14-0.18-31.31,2.91c-5.27,1.6-10.32,4.14-15.22,6.72c-5.33,2.81-10.73,3.88-16.67,2.77
			c-7.83-1.45-12.77-7.56-11.82-15.83c0.95-8.28,4.86-14.79,11.09-20.06c6.57-5.56,14.32-8.86,22.49-11.25
			c11.33-3.3,22.93-4.8,34.72-4.91c14.58-0.13,29,1.07,43.01,5.44c9.01,2.81,17.38,6.86,24.45,13.23
			c9.91,8.94,15.24,20.14,16.17,33.44c0.08,1.16,0.35,2.31,0.53,3.46C-142.16,320.96-142.16,364.68-142.16,408.4z M-197.58,362.96
			c0-11.4,0.02-22.51-0.01-33.61c-0.01-2.27-1.39-3.62-3.37-4.45c-1.74-0.73-3.49-0.54-5.25-0.02c-6.94,2.07-13.94,3.96-20.81,6.24
			c-3.46,1.14-6.81,2.75-9.99,4.54c-3.21,1.81-5.33,4.67-6.29,8.33c-2.54,9.7,2.82,18.96,12.51,21.41
			c5.37,1.36,10.82,1.28,16.29,0.72C-208.85,365.56-203.29,364.59-197.58,362.96z"/>
	</g>
	<g>
		<path class="st0" d="M-946.35,402.47c-3.04-0.22-5.7-0.37-8.34-0.62c-9.92-0.93-19.71-2.55-29.12-5.97
			c-4.22-1.54-8.24-3.48-11.76-6.33c-4.44-3.59-6.7-8.11-6.69-13.95c0.08-29.61,0.05-59.21,0.01-88.82c0-2.67-0.11-5.38-0.57-8
			c-1.68-9.6-7.53-15.31-17.1-16.98c-6.05-1.05-12.13-0.86-18.13,0.06c-8.41,1.29-14.89,9.17-14.89,17.65
			c-0.01,39.54,0,79.08,0,118.63c0,1.28,0,2.56,0,3.97c-0.62,0.11-1.09,0.29-1.54,0.27c-11.56-0.44-23-1.72-34.06-5.33
			c-4.36-1.42-8.53-3.28-12.26-6.03c-2.43-1.79-4.52-3.9-5.95-6.58c-1.09-2.04-1.72-4.18-1.72-6.54
			c0.03-28.61-0.29-57.23,0.13-85.84c0.26-17.6,7.37-32.72,19.44-45.51c8.05-8.53,18.14-13.77,28.97-17.74
			c13.86-5.07,28.1-7.9,42.95-7.05c16.1,0.93,31.4,4.74,45.64,12.44c0.52,0.28,1.05,0.54,1.71,0.87c5.51-3.14,11.32-5.69,17.42-7.56
			c19.82-6.07,39.97-7.72,60.41-3.87c11.18,2.11,21.53,6.35,30.55,13.44c13.11,10.31,19.82,24.02,21.28,40.44
			c0.23,2.57,0.24,5.16,0.24,7.74c0.01,37.75,0.01,75.51,0.01,113.26c0,1.17,0,2.35,0,3.69c-1.03,0.06-1.8,0.19-2.56,0.14
			c-10.24-0.62-20.42-1.72-30.27-4.74c-3.59-1.1-7.11-2.54-10.52-4.13c-2.14-1-4.13-2.4-5.97-3.89c-4.34-3.51-6.48-8.03-6.46-13.75
			c0.08-28.41,0.07-56.83-0.01-85.24c-0.01-3.55-0.31-7.16-0.99-10.65c-2.77-14.09-12.64-19.74-25.97-19.19
			c-5.02,0.21-9.83,1.49-14.17,4.14c-6.33,3.85-9.75,9.28-9.73,16.92c0.08,38.85,0.04,77.69,0.04,116.54
			C-946.35,399.63-946.35,400.89-946.35,402.47z"/>
	</g>
	<g>
		<path class="st0" d="M-755.8,395.2c0,35.33,0,70.35,0,105.47c-0.67,0.17-1.13,0.39-1.58,0.38c-11.08-0.31-22.01-1.54-32.59-5.04
			c-4.17-1.38-8.13-3.2-11.75-5.72c-6.69-4.66-10.05-10.96-10.01-19.2c0.1-20.66,0.03-41.33,0.03-61.99
			c0-43.81,0.02-87.63-0.01-131.44c-0.01-17.29-0.16-34.57-0.25-51.86c-0.01-1.07,0-2.15,0-3.44c1.19-0.08,2.14-0.19,3.1-0.19
			c25.37-0.01,50.74-0.18,76.1,0.05c17.57,0.16,34.57,3.53,50.64,10.88c5.27,2.41,10.15,5.44,14.67,9.07
			c9.96,7.99,15.56,18.41,17.27,30.95c0.48,3.53,0.7,7.12,0.71,10.69c0.07,19.27-0.01,38.55,0.04,57.82
			c0.07,23.35-10.55,40.43-30.53,51.95c-10.78,6.21-22.57,9.12-34.93,10.13c-13.66,1.11-26.48-1.72-38.73-7.59
			C-754.22,395.83-754.85,395.6-755.8,395.2z M-755.84,261.71c0,1.27,0,2.25,0,3.23c0,25.02,0.05,50.04-0.03,75.05
			c-0.02,7.17,2.76,12.94,8.17,17.43c7.32,6.08,15.85,8.51,25.29,7.43c5.08-0.58,9.3-3,12.11-7.31c1.45-2.21,2.57-4.7,3.43-7.21
			c1.42-4.16,1.71-8.55,1.72-12.93c0.02-16.18,0.03-32.36-0.02-48.55c-0.01-2.87-0.19-5.76-0.54-8.61
			c-1.38-11.09-7.37-17.51-18.35-19.82c-7.7-1.62-15.43-1.11-23.14-0.15C-750.04,260.63-752.84,261.2-755.84,261.71z"/>
	</g>
	<g>
		<path class="st0" d="M-473.55,408.27c-14.88,0-29.36,0-44.17,0c0-2.96,0-5.79,0-9c-2.7,0.39-5.04,0.7-7.36,1.07
			c-9.62,1.51-19.22,3.26-28.98,3.53c-14.91,0.41-29.59-0.95-43.7-6.19c-4.68-1.74-9.1-3.97-13.21-6.82
			c-9.45-6.56-15.67-15.37-18.42-26.56c-2.02-8.21-2.33-16.5-0.81-24.82c2.06-11.28,7.97-20.19,17.12-27.01
			c7.83-5.84,16.65-9.72,25.91-12.5c10.08-3.03,20.31-5.52,30.43-8.43c5.53-1.59,10.98-3.45,16.38-5.44
			c3.36-1.24,6.35-3.22,9.03-5.68c1.69-1.55,2.02-3.23,1.5-5.35c-1.16-4.78-4.11-8.05-8.35-10.31c-4.02-2.14-8.4-3.12-12.87-3.43
			c-10.48-0.74-20.95-0.24-31.02,2.8c-5.46,1.65-10.68,4.27-15.78,6.9c-5.26,2.71-10.56,3.77-16.4,2.71
			c-7.76-1.41-12.67-7.2-12.02-15.13c0.56-6.93,3.33-12.81,8.04-17.83c5.21-5.56,11.71-9.13,18.73-11.86
			c9.04-3.53,18.47-5.45,28.09-6.45c13.92-1.45,27.8-1.05,41.62,1.16c9.37,1.5,18.44,4,26.93,8.34
			c17.99,9.21,27.63,23.91,28.92,44.06c0.15,2.38,0.21,4.76,0.22,7.14c0.02,15.59-0.01,31.19,0.01,46.78
			c0.04,24.83,0.11,49.65,0.17,74.48C-473.55,405.61-473.55,406.79-473.55,408.27z M-529.06,362.93c0-0.86,0-1.45,0-2.04
			c0-10.13,0.02-20.26-0.01-30.39c-0.01-4.04-2.68-6.43-6.7-6.05c-0.59,0.06-1.18,0.19-1.75,0.36c-7.42,2.21-14.89,4.27-22.23,6.72
			c-3.35,1.12-6.55,2.84-9.6,4.65c-2.81,1.67-4.62,4.35-5.47,7.55c-2.72,10.15,2.86,19.42,13.09,21.8c5,1.16,10.04,1.1,15.12,0.63
			C-540.76,365.62-535.01,364.61-529.06,362.93z"/>
	</g>
	<g>
		<path class="st0" d="M-391.12,264.95c0,45.6,0,91.28,0,137.09c-0.62,0.15-1.08,0.37-1.52,0.35c-12.16-0.46-24.22-1.7-35.73-5.93
			c-3.51-1.29-6.94-3.02-10.09-5.04c-5.85-3.75-8.65-9.2-8.64-16.31c0.07-49.97,0.03-99.95,0.02-149.92c0-1.07,0-2.14,0-3.44
			c1.26-0.07,2.22-0.17,3.19-0.17c29.55-0.01,59.09-0.05,88.64,0.02c8.17,0.02,16.05,1.83,23.21,5.78
			c10.41,5.74,15.65,14.84,16.29,26.66c0.39,7.21-1.11,14.03-4.25,20.48c-2.04,4.19-4.99,7.46-9.85,8.3
			c-4.07,0.71-7.76-0.09-10.01-4.38c-3.81-7.29-10.37-11.37-18.07-13.61c-10.67-3.1-21.43-2.58-32.17-0.34
			C-390.4,264.54-390.65,264.73-391.12,264.95z"/>
	</g>
	<g>
		<path class="st0" d="M-1188.83,304.24c18.63,0,36.98,0,55.53,0c0.06,1.11,0.15,2.08,0.15,3.05c0.01,11.92,0.04,23.83-0.01,35.75
			c-0.03,6.69-1,13.26-3.13,19.62c-4.26,12.74-12.5,22.19-24.05,28.85c-9.59,5.54-20.05,8.59-30.92,10.32
			c-17.5,2.8-35.06,2.8-52.6,0.51c-10.49-1.37-20.68-3.95-30.25-8.61c-11.13-5.42-20.04-13.17-25.64-24.4
			c-3.46-6.95-5.49-14.35-5.67-22.05c-0.32-14-0.17-28-0.2-42c0-0.28,0.12-0.56,0.23-1.03c18.34,0,36.68,0,55.45,0
			c0,1.08,0,2.13,0,3.18c0,9.63-0.06,19.27,0.03,28.9c0.03,3.27,0.26,6.56,0.73,9.79c1.41,9.78,7.09,15.66,16.76,17.69
			c8.48,1.78,17.01,1.89,25.47,0.2c11.2-2.24,16.66-8.73,17.71-20.48c0.19-2.17,0.23-4.36,0.24-6.55c0.03-9.83,0.01-19.66,0.02-29.5
			C-1188.96,306.44-1188.88,305.38-1188.83,304.24z"/>
	</g>
	<g>
		<path class="st0" d="M-1229.4,261.3c-5.4,1.15-10.69,2.5-14.65,6.69c-3.89,4.11-4.89,9.38-5.73,14.81c-18.62,0-37.07,0-55.64,0
			c-0.46-3.85,0.14-7.48,0.76-11.07c3.43-19.78,15.07-32.99,33.12-41.01c9.34-4.15,19.2-6.41,29.29-7.7
			c3.25-0.42,6.52-0.69,9.79-0.98c0.96-0.09,1.93-0.01,3.05-0.01C-1229.4,235.15-1229.4,248.12-1229.4,261.3z"/>
	</g>
	<g>
		<path class="st0" d="M-1224.98,289.16c0-3.67,0.02-7.35-0.01-11.02c-0.01-1.81,0.6-3.31,2.06-4.4c2.55-1.89,6.33-0.85,7.43,2.14
			c0.4,1.08,0.48,2.33,0.48,3.5c0.04,6.55,0.02,13.11,0.02,19.66c0,0.6,0.02,1.2-0.05,1.79c-0.37,2.95-2.44,4.84-5.15,4.74
			c-2.71-0.1-4.67-2.1-4.76-5.09c-0.09-2.98-0.03-5.96-0.03-8.94C-1224.99,290.75-1224.99,289.96-1224.98,289.16
			C-1224.99,289.16-1224.98,289.16-1224.98,289.16z"/>
	</g>
	<g>
		<path class="st0" d="M-719.13,483.9l1.92-3.17c4,4.17,11.42,7.34,19.26,7.34c11.67,0,16.84-5.09,16.84-11.42
			c0-17.51-36.43-7-36.43-28.51c0-8.25,6.34-15.51,20.68-15.51c6.42,0,13.09,2,17.59,5.25l-1.58,3.42
			c-4.83-3.33-10.75-4.92-16.01-4.92c-11.34,0-16.42,5.25-16.42,11.67c0,17.51,36.43,7.17,36.43,28.35
			c0,8.25-6.59,15.42-21.01,15.42C-706.54,491.82-714.88,488.57-719.13,483.9z"/>
		<path class="st0" d="M-579.31,487.57v3.83h-40.27v-58.36h39.02v3.84h-34.77v23.01h31.1v3.75h-31.1v23.93H-579.31z"/>
		<path class="st0" d="M-479.27,462.47h4.09v21.84c-5.25,5-12.84,7.5-20.84,7.5c-17.59,0-30.51-12.59-30.51-29.6
			c0-17.01,12.92-29.6,30.6-29.6c8.42,0,15.84,2.67,21.01,8l-2.67,2.83c-5.09-5-11.17-6.92-18.26-6.92
			c-15.17,0-26.43,11.01-26.43,25.68c0,14.59,11.25,25.68,26.43,25.68c6.17,0,11.84-1.5,16.59-5.34V462.47z"/>
		<path class="st0" d="M-414.16,466.64v-33.6h4.25v33.43c0,14.59,7,21.43,19.18,21.43s19.09-6.84,19.09-21.43v-33.43h4.25v33.6
			c0,16.67-8.92,25.18-23.43,25.18C-405.32,491.82-414.16,483.32-414.16,466.64z"/>
		<path class="st0" d="M-264.17,491.4l-13.92-19.51c-1.83,0.25-3.67,0.42-5.67,0.42h-16.67v19.09h-4.25v-58.36h20.93
			c14.67,0,23.51,7.34,23.51,19.68c0,9.25-5,15.67-13.67,18.26l14.59,20.43H-264.17z M-283.77,468.56
			c12.51,0,19.18-5.84,19.18-15.84c0-10.09-6.67-15.84-19.18-15.84h-16.67v31.68H-283.77z"/>
		<path class="st0" d="M-207.4,462.22c0-16.92,12.92-29.6,30.35-29.6c17.34,0,30.35,12.59,30.35,29.6c0,17.01-13.01,29.6-30.35,29.6
			C-194.48,491.82-207.4,479.15-207.4,462.22z M-151.04,462.22c0-14.76-11.17-25.68-26.01-25.68c-14.92,0-26.1,10.92-26.1,25.68
			c0,14.76,11.17,25.68,26.1,25.68C-162.21,487.9-151.04,476.98-151.04,462.22z"/>
	</g>
</g>
<g>
	<g>
		<path class="st9" d="M398.11,272.05c0-13.11,0-26.07,0-39.19c2.26,0,4.42-0.14,6.54,0.02c8.72,0.67,17.36,1.86,25.82,4.18
			c11.46,3.15,22.03,8.04,30.67,16.4c6.69,6.48,11.24,14.32,13.62,23.35c1.45,5.48,2.48,11.01,1.99,16.69
			c-2.17,0.61-51.66,0.81-55.81,0.23c-0.54-2.35-1-4.77-1.67-7.13c-2.11-7.46-7.38-11.5-14.67-13.26
			C402.5,272.86,400.35,272.5,398.11,272.05z"/>
	</g>
	<g>
		<path class="st9" d="M197.61,166.04c1.86,0.19,3.72,0.45,5.59,0.57c16.44,1.06,32.59,3.61,48.04,9.6
			c6.05,2.35,11.81,5.26,16.97,9.22c2.04,1.57,4.02,3.27,5.81,5.12c7.84,8.15,9.58,20.53,4.44,30.58c-2.7,5.28-7.13,8.16-12.87,9.08
			c-2.76,0.44-5.36-0.21-7.51-2.11c-11.1-9.79-24.41-14.65-38.69-17.31c-12.87-2.39-25.88-3.04-38.92-2.31
			c-4.53,0.25-9.1,1.09-13.49,2.24c-14.88,3.91-23.89,13.7-27.16,28.59c-1.1,5.01-1.74,10.22-1.78,15.34
			c-0.18,23.84-0.1,47.68-0.06,71.52c0.01,5.78,0.73,11.48,2.2,17.09c3.91,14.82,13.38,24.05,28.19,27.71
			c4.22,1.04,8.61,1.71,12.95,1.9c14.24,0.62,28.44,0.14,42.43-3c12.63-2.84,24.07-8.06,33.72-16.89c3.49-3.2,7.5-3.8,11.86-1.72
			c2.81,1.34,5.41,2.97,7.52,5.28c3.95,4.33,5.44,9.26,4.12,15.11c-2.11,9.34-7.24,16.66-14.58,22.57
			c-8.18,6.59-17.61,10.73-27.55,13.8c-12.8,3.94-25.96,5.84-39.3,6.6c-10.64,0.61-21.28,0.47-31.89-0.64
			c-18.48-1.92-36.24-6.28-52.15-16.33c-18.56-11.73-29.32-28.65-33.1-50.14c-1.19-6.77-1.64-13.6-1.64-20.46
			c-0.02-24.74-0.06-49.47,0.02-74.21c0.04-12.09,1.54-23.97,6.07-35.31c7.34-18.38,20.61-31.07,38.27-39.45
			c11.41-5.41,23.51-8.54,35.98-10.22c4.82-0.65,9.69-0.9,14.54-1.36c0.77-0.07,1.53-0.31,2.29-0.47
			C184.48,166.04,191.05,166.04,197.61,166.04z"/>
	</g>
	<g>
		<path class="st9" d="M1467.84,419.4c-14.59,0-29.17,0-44.09,0c0-3.14,0-5.97,0-9.07c-2.31,0.3-4.25,0.54-6.19,0.81
			c-7.38,1.06-14.72,2.41-22.13,3.13c-17.6,1.7-34.95,0.46-51.72-5.65c-4.69-1.71-9.1-3.99-13.19-6.84
			c-11.84-8.25-18.06-19.75-19.66-33.93c-0.86-7.69-0.45-15.28,1.85-22.69c2.91-9.36,8.72-16.62,16.62-22.29
			c7.67-5.51,16.23-9.26,25.21-11.93c10.08-3,20.32-5.5,30.43-8.42c5.52-1.59,10.98-3.45,16.37-5.46c3.45-1.29,6.55-3.29,9.2-5.94
			c1.24-1.24,1.65-2.53,1.34-4.28c-0.81-4.63-3.39-7.97-7.29-10.39c-4.33-2.69-9.2-3.78-14.18-4.12
			c-10.58-0.73-21.14-0.18-31.31,2.91c-5.27,1.6-10.32,4.14-15.22,6.72c-5.33,2.81-10.73,3.88-16.67,2.77
			c-7.83-1.45-12.77-7.56-11.82-15.83c0.95-8.28,4.86-14.79,11.09-20.06c6.57-5.56,14.32-8.86,22.49-11.25
			c11.33-3.3,22.93-4.8,34.72-4.91c14.58-0.13,29,1.07,43.01,5.44c9.01,2.81,17.38,6.86,24.45,13.23
			c9.91,8.94,15.24,20.14,16.17,33.44c0.08,1.16,0.35,2.31,0.53,3.46C1467.84,331.96,1467.84,375.68,1467.84,419.4z M1412.42,373.96
			c0-11.4,0.02-22.51-0.01-33.61c-0.01-2.27-1.39-3.62-3.37-4.45c-1.74-0.73-3.49-0.54-5.25-0.02c-6.94,2.07-13.94,3.96-20.81,6.24
			c-3.46,1.14-6.81,2.75-9.99,4.54c-3.21,1.81-5.33,4.67-6.29,8.33c-2.54,9.7,2.82,18.96,12.51,21.41
			c5.37,1.36,10.82,1.28,16.29,0.72C1401.15,376.56,1406.71,375.59,1412.42,373.96z"/>
	</g>
	<g>
		<path class="st9" d="M663.65,413.47c-3.04-0.22-5.7-0.37-8.34-0.62c-9.92-0.93-19.71-2.55-29.12-5.97
			c-4.22-1.54-8.24-3.48-11.76-6.33c-4.44-3.59-6.7-8.11-6.69-13.95c0.08-29.61,0.05-59.21,0.01-88.82c0-2.67-0.11-5.38-0.57-8
			c-1.68-9.6-7.53-15.31-17.1-16.98c-6.05-1.05-12.13-0.86-18.13,0.06c-8.41,1.29-14.89,9.17-14.89,17.65c0,39.54,0,79.08,0,118.63
			c0,1.28,0,2.56,0,3.97c-0.62,0.11-1.09,0.29-1.54,0.27c-11.56-0.44-23-1.72-34.06-5.33c-4.36-1.42-8.53-3.28-12.26-6.03
			c-2.43-1.79-4.52-3.9-5.95-6.58c-1.09-2.04-1.72-4.18-1.72-6.54c0.03-28.61-0.29-57.23,0.13-85.84
			c0.26-17.6,7.37-32.72,19.44-45.51c8.05-8.53,18.14-13.77,28.97-17.74c13.86-5.07,28.1-7.9,42.95-7.05
			c16.1,0.93,31.4,4.74,45.64,12.44c0.52,0.28,1.05,0.54,1.71,0.87c5.51-3.14,11.32-5.69,17.42-7.56
			c19.82-6.07,39.97-7.72,60.41-3.87c11.18,2.11,21.53,6.35,30.55,13.44c13.11,10.31,19.82,24.02,21.28,40.44
			c0.23,2.57,0.24,5.16,0.24,7.74c0.01,37.75,0.01,75.51,0.01,113.26c0,1.17,0,2.35,0,3.69c-1.03,0.06-1.8,0.19-2.56,0.14
			c-10.24-0.62-20.42-1.72-30.27-4.74c-3.59-1.1-7.11-2.54-10.52-4.13c-2.14-1-4.13-2.4-5.97-3.89c-4.34-3.51-6.48-8.03-6.46-13.75
			c0.08-28.41,0.07-56.83-0.01-85.24c-0.01-3.55-0.31-7.16-0.99-10.65c-2.77-14.09-12.64-19.74-25.97-19.19
			c-5.02,0.21-9.83,1.49-14.17,4.14c-6.33,3.85-9.75,9.28-9.73,16.92c0.08,38.85,0.04,77.69,0.04,116.54
			C663.65,410.63,663.65,411.89,663.65,413.47z"/>
	</g>
	<g>
		<path class="st9" d="M854.2,406.2c0,35.33,0,70.35,0,105.47c-0.67,0.17-1.13,0.39-1.58,0.38c-11.08-0.31-22.01-1.54-32.59-5.04
			c-4.17-1.38-8.13-3.2-11.75-5.72c-6.69-4.66-10.05-10.96-10.01-19.2c0.1-20.66,0.03-41.33,0.03-61.99
			c0-43.81,0.02-87.63-0.02-131.44c-0.01-17.29-0.16-34.57-0.25-51.86c-0.01-1.07,0-2.15,0-3.44c1.19-0.08,2.14-0.19,3.1-0.19
			c25.37-0.01,50.74-0.18,76.1,0.05c17.57,0.16,34.57,3.53,50.64,10.88c5.27,2.41,10.15,5.44,14.67,9.07
			c9.96,7.99,15.56,18.41,17.27,30.95c0.48,3.53,0.7,7.12,0.71,10.69c0.07,19.27-0.01,38.55,0.04,57.82
			c0.07,23.35-10.55,40.43-30.53,51.95c-10.78,6.21-22.57,9.12-34.93,10.13c-13.66,1.11-26.48-1.72-38.73-7.59
			C855.78,406.83,855.15,406.6,854.2,406.2z M854.16,272.71c0,1.27,0,2.25,0,3.23c0,25.02,0.05,50.04-0.03,75.05
			c-0.02,7.17,2.76,12.94,8.17,17.43c7.32,6.08,15.85,8.51,25.29,7.43c5.08-0.58,9.3-3,12.11-7.31c1.45-2.21,2.57-4.7,3.43-7.21
			c1.42-4.16,1.71-8.55,1.72-12.93c0.02-16.18,0.03-32.36-0.02-48.55c-0.01-2.87-0.19-5.76-0.54-8.61
			c-1.38-11.09-7.37-17.51-18.35-19.82c-7.7-1.62-15.43-1.11-23.14-0.15C859.96,271.63,857.16,272.2,854.16,272.71z"/>
	</g>
	<g>
		<path class="st9" d="M1136.45,419.27c-14.88,0-29.36,0-44.17,0c0-2.96,0-5.79,0-9c-2.7,0.39-5.04,0.7-7.36,1.07
			c-9.62,1.51-19.22,3.26-28.98,3.53c-14.91,0.41-29.59-0.95-43.7-6.19c-4.68-1.74-9.1-3.97-13.21-6.82
			c-9.45-6.56-15.67-15.37-18.42-26.56c-2.02-8.21-2.33-16.5-0.81-24.82c2.06-11.28,7.97-20.19,17.12-27.01
			c7.83-5.84,16.65-9.72,25.91-12.5c10.08-3.03,20.31-5.52,30.43-8.43c5.53-1.59,10.98-3.45,16.38-5.44
			c3.36-1.24,6.35-3.22,9.03-5.68c1.69-1.55,2.02-3.23,1.5-5.35c-1.16-4.78-4.11-8.05-8.35-10.31c-4.02-2.14-8.4-3.12-12.87-3.43
			c-10.48-0.74-20.95-0.24-31.02,2.8c-5.46,1.65-10.68,4.27-15.78,6.9c-5.26,2.71-10.56,3.77-16.4,2.71
			c-7.76-1.41-12.67-7.2-12.02-15.13c0.56-6.93,3.33-12.81,8.04-17.83c5.21-5.56,11.71-9.13,18.73-11.86
			c9.04-3.53,18.47-5.45,28.09-6.45c13.92-1.45,27.8-1.05,41.62,1.16c9.37,1.5,18.44,4,26.93,8.34
			c17.99,9.21,27.63,23.91,28.92,44.06c0.15,2.38,0.21,4.76,0.22,7.14c0.02,15.59-0.01,31.19,0.01,46.78
			c0.04,24.83,0.11,49.65,0.17,74.48C1136.45,416.61,1136.45,417.79,1136.45,419.27z M1080.94,373.93c0-0.86,0-1.45,0-2.04
			c0-10.13,0.02-20.26-0.01-30.39c-0.01-4.04-2.68-6.43-6.7-6.05c-0.59,0.06-1.18,0.19-1.75,0.36c-7.42,2.21-14.89,4.27-22.23,6.72
			c-3.35,1.12-6.55,2.84-9.6,4.65c-2.81,1.67-4.62,4.35-5.47,7.55c-2.72,10.15,2.86,19.42,13.09,21.8c5,1.16,10.04,1.1,15.12,0.63
			C1069.24,376.62,1074.99,375.61,1080.94,373.93z"/>
	</g>
	<g>
		<path class="st9" d="M1218.88,275.95c0,45.6,0,91.28,0,137.09c-0.62,0.15-1.08,0.37-1.52,0.35c-12.16-0.46-24.22-1.7-35.73-5.93
			c-3.51-1.29-6.94-3.02-10.09-5.04c-5.85-3.75-8.65-9.2-8.64-16.31c0.07-49.97,0.03-99.95,0.02-149.92c0-1.07,0-2.14,0-3.44
			c1.26-0.07,2.22-0.17,3.19-0.17c29.55-0.01,59.09-0.05,88.64,0.02c8.17,0.02,16.05,1.83,23.21,5.78
			c10.41,5.74,15.65,14.84,16.29,26.66c0.39,7.21-1.11,14.03-4.25,20.48c-2.04,4.19-4.99,7.46-9.85,8.3
			c-4.07,0.71-7.77-0.09-10.01-4.39c-3.81-7.29-10.37-11.37-18.07-13.61c-10.67-3.1-21.43-2.58-32.18-0.34
			C1219.6,275.54,1219.35,275.73,1218.88,275.95z"/>
	</g>
	<g>
		<path class="st9" d="M421.17,315.24c18.63,0,36.98,0,55.53,0c0.06,1.11,0.15,2.08,0.15,3.05c0.01,11.92,0.04,23.83-0.01,35.75
			c-0.03,6.69-1,13.26-3.13,19.62c-4.26,12.74-12.5,22.19-24.05,28.85c-9.59,5.54-20.05,8.59-30.92,10.32
			c-17.5,2.8-35.06,2.8-52.6,0.51c-10.49-1.37-20.68-3.95-30.25-8.61c-11.13-5.42-20.04-13.17-25.64-24.4
			c-3.46-6.95-5.49-14.35-5.67-22.05c-0.32-14-0.17-28-0.2-42c0-0.28,0.12-0.56,0.23-1.03c18.34,0,36.68,0,55.45,0
			c0,1.08,0,2.13,0,3.18c0,9.63-0.06,19.27,0.03,28.9c0.03,3.27,0.26,6.56,0.73,9.79c1.41,9.78,7.09,15.66,16.76,17.69
			c8.48,1.78,17.01,1.89,25.47,0.2c11.2-2.24,16.66-8.73,17.71-20.48c0.19-2.17,0.23-4.36,0.24-6.55c0.03-9.83,0.01-19.66,0.02-29.5
			C421.04,317.44,421.12,316.38,421.17,315.24z"/>
	</g>
	<g>
		<path class="st9" d="M380.6,272.3c-5.4,1.15-10.69,2.5-14.65,6.69c-3.89,4.11-4.89,9.38-5.73,14.81c-18.62,0-37.07,0-55.64,0
			c-0.46-3.85,0.14-7.48,0.76-11.07c3.43-19.78,15.07-32.99,33.12-41.01c9.34-4.15,19.2-6.41,29.29-7.7
			c3.25-0.42,6.52-0.69,9.79-0.98c0.96-0.09,1.93-0.01,3.05-0.01C380.6,246.15,380.6,259.12,380.6,272.3z"/>
	</g>
	<g>
		<path class="st9" d="M385.02,300.16c0-3.67,0.02-7.35-0.01-11.02c-0.01-1.81,0.6-3.31,2.06-4.4c2.55-1.89,6.33-0.85,7.43,2.14
			c0.4,1.08,0.48,2.33,0.48,3.5c0.04,6.55,0.02,13.11,0.02,19.66c0,0.6,0.02,1.2-0.05,1.79c-0.37,2.95-2.44,4.84-5.15,4.74
			c-2.71-0.1-4.67-2.1-4.76-5.09c-0.09-2.98-0.03-5.96-0.03-8.94C385.01,301.75,385.01,300.96,385.02,300.16
			C385.01,300.16,385.02,300.16,385.02,300.16z"/>
	</g>
	<g>
		<path class="st9" d="M890.87,494.9l1.92-3.17c4,4.17,11.42,7.34,19.26,7.34c11.67,0,16.84-5.09,16.84-11.42
			c0-17.51-36.43-7-36.43-28.51c0-8.25,6.34-15.51,20.68-15.51c6.42,0,13.09,2,17.59,5.25l-1.58,3.42
			c-4.83-3.33-10.75-4.92-16.01-4.92c-11.34,0-16.42,5.25-16.42,11.67c0,17.51,36.43,7.17,36.43,28.35
			c0,8.25-6.59,15.42-21.01,15.42C903.46,502.82,895.12,499.57,890.87,494.9z"/>
		<path class="st9" d="M1030.69,498.57v3.83h-40.27v-58.36h39.02v3.84h-34.77v23.01h31.1v3.75h-31.1v23.93H1030.69z"/>
		<path class="st9" d="M1130.73,473.47h4.09v21.84c-5.25,5-12.84,7.5-20.84,7.5c-17.59,0-30.51-12.59-30.51-29.6
			c0-17.01,12.92-29.6,30.6-29.6c8.42,0,15.84,2.67,21.01,8l-2.67,2.83c-5.09-5-11.17-6.92-18.26-6.92
			c-15.17,0-26.43,11.01-26.43,25.68c0,14.59,11.25,25.68,26.43,25.68c6.17,0,11.84-1.5,16.59-5.34V473.47z"/>
		<path class="st9" d="M1195.84,477.64v-33.6h4.25v33.43c0,14.59,7,21.43,19.18,21.43s19.09-6.84,19.09-21.43v-33.43h4.25v33.6
			c0,16.67-8.92,25.18-23.43,25.18C1204.68,502.82,1195.84,494.32,1195.84,477.64z"/>
		<path class="st9" d="M1345.83,502.4l-13.92-19.51c-1.83,0.25-3.67,0.42-5.67,0.42h-16.67v19.09h-4.25v-58.36h20.93
			c14.67,0,23.51,7.34,23.51,19.68c0,9.25-5,15.67-13.67,18.26l14.59,20.43H1345.83z M1326.23,479.56
			c12.51,0,19.18-5.84,19.18-15.84c0-10.09-6.67-15.84-19.18-15.84h-16.67v31.68H1326.23z"/>
		<path class="st9" d="M1402.6,473.22c0-16.92,12.92-29.6,30.35-29.6c17.34,0,30.35,12.59,30.35,29.6c0,17.01-13.01,29.6-30.35,29.6
			C1415.52,502.82,1402.6,490.15,1402.6,473.22z M1458.96,473.22c0-14.76-11.17-25.68-26.01-25.68c-14.92,0-26.1,10.92-26.1,25.68
			c0,14.76,11.17,25.68,26.1,25.68C1447.79,498.9,1458.96,487.98,1458.96,473.22z"/>
	</g>
</g>
</svg>
