<svg id="Capa_1" data-name="Capa 1" xmlns="http://www.w3.org/2000/svg" viewBox="0 0 231 231"><defs><style>.cls-1{fill:#fff;}</style></defs><title>COMPARA SEGURO - icono blanco</title><path class="cls-1" d="M125.23,59V19.82c2.26,0,4.41-.14,6.54,0A136.71,136.71,0,0,1,157.59,24c11.46,3.15,22,8,30.67,16.4a49.66,49.66,0,0,1,13.62,23.35c1.45,5.48,2.48,11,2,16.7-2.17.61-51.66.81-55.81.23-.54-2.35-1-4.77-1.67-7.13-2.11-7.46-7.38-11.5-14.67-13.25C129.62,59.82,127.48,59.46,125.23,59Z"/><path class="cls-1" d="M148.3,102.21h55.53c0,1.11.15,2.08.15,3,0,11.92,0,23.84,0,35.75a62.36,62.36,0,0,1-3.13,19.63c-4.25,12.74-12.5,22.18-24.05,28.85-9.59,5.54-20,8.59-30.91,10.32a182.16,182.16,0,0,1-52.6.52A97.3,97.3,0,0,1,63,191.71c-11.12-5.42-20-13.17-25.63-24.4a52,52,0,0,1-5.67-22c-.32-14-.17-28-.2-42a6,6,0,0,1,.22-1H87.19v3.17c0,9.64-.06,19.27,0,28.9A76.24,76.24,0,0,0,88,144.1c1.41,9.79,7.1,15.66,16.77,17.7a63,63,0,0,0,25.47.2c11.2-2.24,16.66-8.73,17.71-20.49.19-2.17.23-4.36.24-6.55,0-9.83,0-19.66,0-29.49C148.16,104.4,148.25,103.34,148.3,102.21Z"/><path class="cls-1" d="M107.72,59.26C102.33,60.41,97,61.76,93.08,66s-4.89,9.38-5.73,14.81H31.72a37,37,0,0,1,.76-11.07c3.42-19.78,15.07-33,33.11-41A104,104,0,0,1,94.89,21c3.25-.42,6.52-.69,9.79-1,.95-.09,1.92,0,3,0Z"/><path class="cls-1" d="M112.14,87.12c0-3.67,0-7.34,0-11a5.1,5.1,0,0,1,2.07-4.4,4.87,4.87,0,0,1,7.43,2.14,10.77,10.77,0,0,1,.48,3.5c0,6.56,0,13.11,0,19.67a15.12,15.12,0,0,1,0,1.78c-.37,2.95-2.44,4.84-5.15,4.74a4.9,4.9,0,0,1-4.77-5.09c-.09-3,0-6,0-8.93V87.12Z"/></svg>