<svg width="40" height="40" viewBox="0 0 40 40" fill="none" xmlns="http://www.w3.org/2000/svg">
<path d="M20 9.75904C23.3132 9.75904 23.7651 9.75904 25.1205 9.75904C26.3252 9.75904 26.9278 10.0602 27.3795 10.2109C27.9819 10.5121 28.4338 10.6627 28.8855 11.1145C29.3374 11.5663 29.6385 12.0181 29.7891 12.6205C29.9398 13.0723 30.0904 13.6747 30.241 14.8795C30.241 16.235 30.241 16.5361 30.241 20C30.241 23.4639 30.241 23.7651 30.241 25.1205C30.241 26.3252 29.9398 26.9278 29.7891 27.3795C29.488 27.9819 29.3374 28.4338 28.8855 28.8855C28.4338 29.3374 27.9819 29.6385 27.3795 29.7891C26.9278 29.9398 26.3252 30.0904 25.1205 30.241C23.7651 30.241 23.4639 30.241 20 30.241C16.5361 30.241 16.235 30.241 14.8795 30.241C13.6747 30.241 13.0723 29.9398 12.6205 29.7891C12.0181 29.488 11.5663 29.3374 11.1145 28.8855C10.6627 28.4338 10.3615 27.9819 10.2109 27.3795C10.0602 26.9278 9.90964 26.3252 9.75904 25.1205C9.75904 23.7651 9.75904 23.4639 9.75904 20C9.75904 16.5361 9.75904 16.235 9.75904 14.8795C9.75904 13.6747 10.0602 13.0723 10.2109 12.6205C10.5121 12.0181 10.6627 11.5663 11.1145 11.1145C11.5663 10.6627 12.0181 10.3615 12.6205 10.2109C13.0723 10.0602 13.6747 9.90964 14.8795 9.75904C16.235 9.75904 16.6868 9.75904 20 9.75904ZM20 7.5C16.5361 7.5 16.235 7.5 14.8795 7.5C13.5241 7.5 12.6205 7.8012 11.8675 8.10241C11.1145 8.40361 10.3614 8.85542 9.60844 9.60844C8.85542 10.3614 8.55421 10.9639 8.10241 11.8675C7.8012 12.6205 7.6506 13.5241 7.5 14.8795C7.5 16.235 7.5 16.6868 7.5 20C7.5 23.4639 7.5 23.7651 7.5 25.1205C7.5 26.4759 7.8012 27.3795 8.10241 28.1325C8.40361 28.8855 8.85542 29.6385 9.60844 30.3916C10.3614 31.1446 10.9639 31.4458 11.8675 31.8976C12.6205 32.1988 13.5241 32.3494 14.8795 32.5C16.235 32.5 16.6868 32.5 20 32.5C23.3132 32.5 23.7651 32.5 25.1205 32.5C26.4759 32.5 27.3795 32.1988 28.1325 31.8976C28.8855 31.5964 29.6385 31.1446 30.3916 30.3916C31.1446 29.6385 31.4458 29.0361 31.8976 28.1325C32.1988 27.3795 32.3494 26.4759 32.5 25.1205C32.5 23.7651 32.5 23.3132 32.5 20C32.5 16.6868 32.5 16.235 32.5 14.8795C32.5 13.5241 32.1988 12.6205 31.8976 11.8675C31.5964 11.1145 31.1446 10.3614 30.3916 9.60844C29.6385 8.85542 29.0361 8.55421 28.1325 8.10241C27.3795 7.8012 26.4759 7.6506 25.1205 7.5C23.7651 7.5 23.4639 7.5 20 7.5Z" fill="white"/>
<path d="M20.0003 13.5242C16.3858 13.5242 13.5244 16.3855 13.5244 20C13.5244 23.6145 16.3858 26.4759 20.0003 26.4759C23.6148 26.4759 26.4762 23.6145 26.4762 20C26.4762 16.3855 23.6148 13.5242 20.0003 13.5242ZM20.0003 24.2169C17.7413 24.2169 15.7834 22.4097 15.7834 20C15.7834 17.741 17.5907 15.7832 20.0003 15.7832C22.2593 15.7832 24.2172 17.5904 24.2172 20C24.2172 22.259 22.2593 24.2169 20.0003 24.2169Z" fill="white"/>
<path d="M26.6261 14.8795C27.4579 14.8795 28.1321 14.2052 28.1321 13.3735C28.1321 12.5417 27.4579 11.8674 26.6261 11.8674C25.7944 11.8674 25.1201 12.5417 25.1201 13.3735C25.1201 14.2052 25.7944 14.8795 26.6261 14.8795Z" fill="white"/>
</svg>
