<svg width="30" height="30" viewBox="0 0 30 30" fill="none" xmlns="http://www.w3.org/2000/svg">
<path d="M29.6663 2.99998C29.6663 1.53331 28.4663 0.333313 26.9997 0.333313H17.2663C16.5997 0.333313 15.933 0.59998 15.3997 1.13331L1.13301 15.4C0.0663412 16.4666 0.0663412 18.2 1.13301 19.2666L10.8663 29C11.933 30.0666 13.6663 30.0666 14.733 29L28.9997 14.7333C29.533 14.2 29.7997 13.5333 29.7997 12.8666L29.6663 2.99998ZM21.6663 11.1333C20.1997 11.1333 18.9997 9.93331 18.9997 8.46665C18.9997 6.99998 20.1997 5.79998 21.6663 5.79998C23.133 5.79998 24.333 6.99998 24.333 8.46665C24.333 9.93331 23.133 11.1333 21.6663 11.1333Z" fill="white"/>
</svg>
