<svg width="181" height="32" viewBox="0 0 181 32" fill="none" xmlns="http://www.w3.org/2000/svg">
<path d="M0 12.1149C4.12934 12.1149 7.68288 12.0504 11.2529 12.1472C12.5032 12.1795 13.0625 11.7439 13.408 10.6308C14.4445 7.29155 15.5796 3.98454 16.7806 0.322632C17.9322 3.79096 19.1003 6.88826 19.9886 10.0662C20.4657 11.76 21.3048 12.2117 22.9993 12.1472C26.3554 12.0182 29.7444 12.1149 33.5941 12.1149C30.3038 14.4541 27.4576 16.5351 24.5457 18.5354C23.4928 19.2452 23.2296 19.9227 23.6573 21.1326C24.8089 24.3106 25.796 27.5208 26.9805 31.102C26.306 30.731 25.9112 30.5697 25.5657 30.3438C23.1967 28.6661 20.7619 27.0852 18.508 25.2785C17.1754 24.1976 16.2541 24.3428 14.9874 25.343C12.8487 27.0207 10.5783 28.5371 8.35739 30.1019C7.89675 30.4245 7.41965 30.6987 6.51482 31.2795C7.73223 27.6014 8.73578 24.3912 9.88738 21.2294C10.348 19.955 10.0684 19.2291 8.9661 18.487C6.08707 16.5189 3.29031 14.4541 0 12.1149Z" fill="white"/>
<path d="M63.7164 31.0698C61.0019 29.134 58.2216 27.2627 55.5729 25.2301C54.3226 24.2622 53.4342 24.2622 52.1839 25.2301C49.5845 27.2304 46.8536 29.0694 43.8265 30.731C44.4846 28.6984 45.1262 26.6658 45.8007 24.6493C46.0804 23.8105 46.3929 23.0039 46.6562 22.165C47.5774 19.0194 47.9229 19.8743 45.3071 17.9708C42.7407 16.0995 40.1413 14.2605 37.1143 12.115C41.112 12.115 44.5997 12.0343 48.071 12.1472C49.5352 12.1956 50.1932 11.7117 50.5881 10.3727C51.5423 7.19477 52.6445 4.04908 53.8455 0.419434C54.4706 2.19393 54.9806 3.56513 55.4413 4.95246C56.0829 6.88827 56.7574 8.82408 57.3332 10.776C57.6293 11.7762 58.1723 12.1472 59.2581 12.1311C62.828 12.0666 66.398 12.115 70.3464 12.115C69.8035 12.615 69.5403 12.9377 69.1948 13.1797C66.8916 14.8412 64.6377 16.5835 62.2358 18.0837C60.6729 19.0677 60.2616 20.0357 60.9526 21.794C62.1206 24.7623 62.9926 27.8273 63.9961 30.8601C63.9138 30.9246 63.8151 31.0053 63.7164 31.0698Z" fill="white"/>
<path d="M117.793 31.3762C119.01 27.682 119.997 24.4718 121.132 21.3261C121.61 20.0033 121.396 19.229 120.178 18.4224C117.332 16.535 114.585 14.4863 111.887 12.1149C114.7 12.1149 117.513 12.1472 120.343 12.0988C125.081 12.0181 123.765 12.8892 125.361 8.48525C126.265 5.96869 127.055 3.40374 128.059 0.370972C129.227 3.8393 130.362 6.79141 131.184 9.84032C131.678 11.6309 132.451 12.2762 134.376 12.1633C137.683 11.9858 141.006 12.1149 144.839 12.1149C141.598 14.4379 138.818 16.5027 135.939 18.4385C134.738 19.2451 134.491 19.9711 134.985 21.3261C136.136 24.4234 137.09 27.5853 137.765 31.0052C136.005 29.763 134.277 28.4886 132.501 27.2788C131.003 26.2625 129.457 24.5525 127.927 24.5364C126.479 24.5202 124.999 26.3108 123.534 27.3271C121.774 28.5532 120.014 29.8114 117.793 31.3762Z" fill="white"/>
<path d="M153.954 31.0052C155.171 27.3111 156.158 24.1009 157.294 20.9552C157.771 19.6324 157.557 18.858 156.339 18.0514C153.493 16.164 150.746 14.1153 148.048 11.7439C150.861 11.7439 153.674 11.7762 156.504 11.7278C161.242 11.6471 159.926 12.5182 161.522 8.11428C162.427 5.59772 163.216 3.03277 164.22 0C165.388 3.46833 166.523 6.42044 167.346 9.46934C167.839 11.26 168.612 11.9052 170.537 11.7923C173.844 11.6149 177.167 11.7439 181 11.7439C177.759 14.0669 174.979 16.1318 172.1 18.0676C170.899 18.8742 170.652 19.6001 171.146 20.9552C172.297 24.0525 173.252 27.2143 173.926 30.6342C172.166 29.3921 170.438 28.1177 168.662 26.9078C167.165 25.8915 165.618 24.1815 164.088 24.1654C162.64 24.1492 161.16 25.9399 159.696 26.9562C157.935 28.1661 156.158 29.4405 153.954 31.0052Z" fill="white"/>
<path d="M74.8048 12.115C78.0622 12.115 81.336 11.9698 84.5934 12.1634C86.6005 12.2763 87.4231 11.5504 87.9002 9.74363C88.5747 7.21095 89.5125 4.74279 90.3515 2.2585C90.4995 1.83907 90.697 1.43578 91.0589 0.596924C92.1612 3.92007 93.247 6.79152 94.0695 9.74363C94.5631 11.5343 95.3692 12.2925 97.3763 12.1634C100.634 11.9698 103.891 12.115 107.724 12.115C105.454 13.7443 103.628 15.0671 101.802 16.3738C100.798 17.0997 99.8276 17.8902 98.7582 18.5193C97.6395 19.1807 97.4421 19.9066 97.8698 21.1165C99.0215 24.359 100.041 27.6499 101.259 31.3763C99.2682 29.9729 97.5902 28.763 95.8957 27.6015C94.2505 26.4723 92.5724 24.5687 90.8944 24.5526C89.2986 24.5365 87.6699 26.4884 86.0741 27.6015C84.3796 28.7791 82.718 29.9729 80.7109 31.3763C81.9118 27.7144 82.9318 24.3913 84.0999 21.1165C84.5276 19.9066 84.2809 19.2291 83.228 18.5032C80.3489 16.5512 77.5522 14.4864 74.7061 12.4538C74.739 12.357 74.7719 12.2279 74.8048 12.115Z" fill="white"/>
</svg>
