<svg width="76" height="76" viewBox="0 0 76 76" fill="none" xmlns="http://www.w3.org/2000/svg">
<path d="M63.3333 9.5H12.6667C5.7 9.5 0 15.2 0 22.1667V25.3333C0 27.2333 1.26667 28.5 3.16667 28.5H72.8333C74.7333 28.5 76 27.2333 76 25.3333V22.1667C76 15.2 70.3 9.5 63.3333 9.5Z" fill="#008DC7"/>
<path d="M72.8333 34.8335H3.16667C1.26667 34.8335 0 36.1002 0 38.0002V53.8335C0 60.8002 5.7 66.5002 12.6667 66.5002H63.3333C70.3 66.5002 76 60.8002 76 53.8335V38.0002C76 36.1002 74.7333 34.8335 72.8333 34.8335ZM34.8333 57.0002H15.8333C13.9333 57.0002 12.6667 55.7335 12.6667 53.8335C12.6667 51.9335 13.9333 50.6668 15.8333 50.6668H34.8333C36.7333 50.6668 38 51.9335 38 53.8335C38 55.7335 36.7333 57.0002 34.8333 57.0002ZM60.1667 47.5002H53.8333C51.9333 47.5002 50.6667 46.2335 50.6667 44.3335C50.6667 42.4335 51.9333 41.1668 53.8333 41.1668H60.1667C62.0667 41.1668 63.3333 42.4335 63.3333 44.3335C63.3333 46.2335 62.0667 47.5002 60.1667 47.5002Z" fill="#008DC7"/>
</svg>
