<svg width="18" height="20" viewBox="0 0 18 20" fill="none" xmlns="http://www.w3.org/2000/svg">
<path d="M12.8654 8.30063C12.8654 8.30063 12.3052 7.60391 11.9203 7.60391H11.6002V5.99963C11.6002 5.55113 11.2608 5.18713 10.8426 5.18713C10.4244 5.18713 10.085 5.55113 10.085 5.99963V7.60391H8.15881V5.99963C8.15881 5.55113 7.81941 5.18713 7.40121 5.18713C6.98302 5.18713 6.64361 5.55113 6.64361 5.99963V7.60391H6.32277C5.93791 7.60391 5.37804 8.30063 5.37804 8.30063L1.2332 12.4509C1.07448 12.6101 0.945312 12.9006 0.945312 13.1001V13.4608V18.2282C0.945312 19.052 1.56882 19.7203 2.33703 19.7203H15.9068C16.675 19.7203 17.2981 19.052 17.2981 18.2282V13.4608C17.2981 13.4608 17.2981 13.2999 17.2981 13.1001C17.2981 12.901 17.169 12.6101 17.0103 12.4509L12.8654 8.30063ZM15.4041 17.6891H2.83932V13.6217L6.67051 9.78548L6.73755 9.72007L6.8046 9.63679C6.80498 9.63638 6.80536 9.63598 6.80574 9.63516H11.4373L11.4979 9.71032L11.5726 9.78507L15.4038 13.6213L15.4041 17.6891Z" fill="white"/>
<path d="M12.1998 0.279663H6.04274C2.90513 0.279663 0.360352 3.00885 0.360352 6.37463V7.18876C0.360352 7.41829 0.533842 7.60394 0.748244 7.60394H4.23738C4.7605 7.60394 5.18476 7.14976 5.18476 6.58832V4.49491C5.18476 3.93429 5.60863 3.47929 6.13176 3.47929H12.1104C12.6335 3.47929 13.0577 3.93429 13.0577 4.49491V6.58832C13.0577 7.14976 13.4816 7.60394 14.0048 7.60394H17.4946C17.7087 7.60394 17.8818 7.41829 17.8818 7.18876V6.37463C17.8822 3.00885 15.3381 0.279663 12.1998 0.279663Z" fill="white"/>
<path d="M9.12148 10.6655C7.52521 10.6655 6.23047 12.054 6.23047 13.766C6.23047 15.4783 7.52521 16.8665 9.12148 16.8665C10.7181 16.8665 12.0125 15.4783 12.0125 13.766C12.0125 12.054 10.7181 10.6655 9.12148 10.6655ZM9.12148 14.5228C8.73169 14.5228 8.41577 14.184 8.41577 13.766C8.41577 13.3479 8.73169 13.0091 9.12148 13.0091C9.51126 13.0091 9.82718 13.3479 9.82718 13.766C9.82718 14.184 9.51126 14.5228 9.12148 14.5228Z" fill="white"/>
</svg>
