<svg width="18" height="19" viewBox="0 0 18 19" fill="none" xmlns="http://www.w3.org/2000/svg">
<path fill-rule="evenodd" clip-rule="evenodd" d="M14.8842 2.96856C13.2777 1.24372 11.1414 0.29342 8.86525 0.292419C4.1754 0.292419 0.358344 4.38574 0.356513 9.41699C0.355857 11.0253 0.747665 12.5952 1.49229 13.979L0.285156 18.7076L4.79575 17.4387C6.03853 18.1657 7.4378 18.5489 8.86187 18.5494H8.86532C8.86504 18.5494 8.86559 18.5494 8.86532 18.5494C13.5547 18.5494 17.3721 14.4556 17.374 9.42429C17.3748 6.98599 16.4906 4.69333 14.8842 2.96856ZM8.86528 17.0083H8.86242C7.59346 17.0077 6.34879 16.6421 5.26296 15.9511L5.00475 15.7867L2.32809 16.5397L3.04256 13.7409L2.87439 13.4539C2.16648 12.2463 1.7926 10.8506 1.79315 9.41751C1.79467 5.23573 4.96727 1.83361 8.86815 1.83361C10.7571 1.83424 12.5328 2.62423 13.868 4.05785C15.2032 5.49147 15.9381 7.39707 15.9373 9.42366C15.9358 13.6058 12.7633 17.0083 8.86528 17.0083Z" fill="white"/>
<path fill-rule="evenodd" clip-rule="evenodd" d="M12.7446 11.3278C12.5321 11.2137 11.4868 10.6622 11.2919 10.586C11.097 10.51 10.9553 10.4719 10.8136 10.7002C10.6719 10.9284 10.2644 11.442 10.1404 11.5942C10.0164 11.7463 9.89233 11.7654 9.67978 11.6512C9.46719 11.5371 8.78215 11.2963 7.97011 10.5195C7.33805 9.91492 6.91139 9.16831 6.78732 8.93998C6.66333 8.71177 6.77413 8.58838 6.88058 8.47467C6.97622 8.37247 7.0932 8.20837 7.19951 8.07521C7.30579 7.94212 7.34122 7.84692 7.4121 7.69487C7.48297 7.54266 7.44757 7.4095 7.39438 7.29541C7.34122 7.18128 6.91605 6.059 6.7389 5.60239C6.56628 5.15785 6.39103 5.21808 6.2605 5.211C6.13668 5.20437 5.99476 5.203 5.85305 5.203C5.71134 5.203 5.48096 5.26008 5.28613 5.4883C5.09126 5.71658 4.54199 6.26825 4.54199 7.39042C4.54199 8.51274 5.30381 9.59695 5.41012 9.74908C5.5164 9.90132 6.90928 12.2043 9.04198 13.1919C9.54922 13.4269 9.94524 13.5671 10.254 13.6722C10.7633 13.8458 11.2268 13.8213 11.5931 13.7625C12.0016 13.6971 12.851 13.211 13.0281 12.6784C13.2053 12.1458 13.2053 11.6892 13.1521 11.5942C13.099 11.4991 12.9572 11.442 12.7446 11.3278Z" fill="white"/>
</svg>
